<svg width="29" height="30" viewBox="0 0 29 30" fill="none" xmlns="http://www.w3.org/2000/svg">
<rect y="0.5" width="29" height="29" rx="14.5" fill="#FFEFD6"/>
<path d="M15 14.013C14.7267 14.013 14.5 13.7863 14.5 13.513V11.293C14.5 11.0196 14.7267 10.793 15 10.793C15.2733 10.793 15.5 11.0196 15.5 11.293V13.513C15.5 13.793 15.2733 14.013 15 14.013Z" fill="#FFB715"/>
<path d="M15.0136 20.5662C13.2936 20.5662 11.5802 20.2928 9.9469 19.7462C9.34024 19.5462 8.88024 19.1128 8.68024 18.5662C8.48024 18.0195 8.5469 17.3928 8.87357 16.8462L9.72024 15.4328C9.9069 15.1195 10.0736 14.5328 10.0736 14.1662V12.7662C10.0736 10.0395 12.2869 7.82617 15.0136 7.82617C17.7402 7.82617 19.9536 10.0395 19.9536 12.7662V14.1662C19.9536 14.5262 20.1202 15.1195 20.3069 15.4328L21.1536 16.8462C21.4669 17.3662 21.5202 17.9862 21.3136 18.5528C21.1069 19.1195 20.6536 19.5528 20.0802 19.7462C18.4469 20.2995 16.7336 20.5662 15.0136 20.5662ZM15.0136 8.83284C12.8402 8.83284 11.0736 10.5995 11.0736 12.7728V14.1728C11.0736 14.7128 10.8602 15.4928 10.5802 15.9528L9.73357 17.3728C9.56024 17.6595 9.52024 17.9662 9.62024 18.2328C9.72024 18.4995 9.9469 18.6995 10.2669 18.8062C13.3336 19.8262 16.7069 19.8262 19.7736 18.8062C20.0602 18.7128 20.2802 18.4995 20.3802 18.2195C20.4869 17.9395 20.4536 17.6328 20.3002 17.3728L19.4536 15.9595C19.1736 15.4995 18.9602 14.7195 18.9602 14.1795V12.7795C18.9536 10.5995 17.1869 8.83284 15.0136 8.83284Z" fill="#FFB715"/>
<path d="M14.9998 22.2669C14.2865 22.2669 13.5865 21.9735 13.0798 21.4669C12.5731 20.9602 12.2798 20.2602 12.2798 19.5469H13.2798C13.2798 20.0002 13.4665 20.4402 13.7865 20.7602C14.1065 21.0802 14.5465 21.2669 14.9998 21.2669C15.9465 21.2669 16.7198 20.4935 16.7198 19.5469H17.7198C17.7198 21.0469 16.4998 22.2669 14.9998 22.2669Z" fill="#FFB715"/>
</svg>
