<svg width="20" height="20" viewBox="0 0 20 20" fill="none" xmlns="http://www.w3.org/2000/svg">
<path d="M10.0003 1.66663C8.35215 1.66663 6.74099 2.15537 5.37058 3.07105C4.00017 3.98672 2.93206 5.28821 2.30133 6.81093C1.6706 8.33365 1.50558 10.0092 1.82712 11.6257C2.14866 13.2422 2.94234 14.7271 4.10777 15.8925C5.27321 17.058 6.75807 17.8516 8.37458 18.1732C9.99109 18.4947 11.6666 18.3297 13.1894 17.699C14.7121 17.0682 16.0136 16.0001 16.9292 14.6297C17.8449 13.2593 18.3337 11.6481 18.3337 9.99996C18.3337 8.90561 18.1181 7.82198 17.6993 6.81093C17.2805 5.79988 16.6667 4.88122 15.8929 4.1074C15.1191 3.33358 14.2004 2.71975 13.1894 2.30096C12.1783 1.88217 11.0947 1.66663 10.0003 1.66663ZM10.0003 16.6666C8.68179 16.6666 7.39286 16.2756 6.29653 15.5431C5.2002 14.8105 4.34572 13.7694 3.84113 12.5512C3.33655 11.333 3.20453 9.99256 3.46176 8.69936C3.719 7.40615 4.35393 6.21826 5.28628 5.28591C6.21863 4.35356 7.40652 3.71863 8.69973 3.46139C9.99293 3.20416 11.3334 3.33618 12.5516 3.84076C13.7697 4.34535 14.8109 5.19983 15.5435 6.29616C16.276 7.39249 16.667 8.68142 16.667 9.99996C16.667 11.7681 15.9646 13.4638 14.7144 14.714C13.4641 15.9642 11.7684 16.6666 10.0003 16.6666ZM11.7503 8.02496L10.8337 8.55829V5.83329C10.8337 5.61228 10.7459 5.40032 10.5896 5.24404C10.4333 5.08776 10.2213 4.99996 10.0003 4.99996C9.77932 4.99996 9.56735 5.08776 9.41107 5.24404C9.25479 5.40032 9.167 5.61228 9.167 5.83329V9.99996C9.167 9.99996 9.167 9.99996 9.167 10.05C9.16308 10.1054 9.16308 10.1611 9.167 10.2166C9.1799 10.2678 9.19661 10.3179 9.217 10.3666C9.217 10.3666 9.217 10.3666 9.217 10.4166C9.2568 10.4757 9.30139 10.5315 9.35033 10.5833C9.41765 10.65 9.49676 10.7037 9.58366 10.7416H9.65033C9.75887 10.7974 9.87836 10.8287 10.0003 10.8333C10.0975 10.8305 10.1933 10.8108 10.2837 10.775H10.3587H10.417L12.5837 9.52496C12.7759 9.41445 12.9165 9.23209 12.9743 9.01798C13.0321 8.80388 13.0025 8.57558 12.892 8.38329C12.7815 8.19101 12.5991 8.0505 12.385 7.99268C12.1709 7.93486 11.9426 7.96445 11.7503 8.07496V8.02496Z" fill="#FFB715"/>
</svg>
