<svg width="32" height="32" viewBox="0 0 32 32" fill="none" xmlns="http://www.w3.org/2000/svg">
<rect width="32" height="32" rx="16" fill="#FFE0E0"/>
<path d="M22.6667 9.99999H19.3333V9.16666C19.3333 8.50362 19.0699 7.86773 18.6011 7.39889C18.1323 6.93005 17.4964 6.66666 16.8333 6.66666H15.1667C14.5036 6.66666 13.8677 6.93005 13.3989 7.39889C12.9301 7.86773 12.6667 8.50362 12.6667 9.16666V9.99999H9.33333C9.11232 9.99999 8.90036 10.0878 8.74408 10.2441C8.5878 10.4003 8.5 10.6123 8.5 10.8333C8.5 11.0543 8.5878 11.2663 8.74408 11.4226C8.90036 11.5789 9.11232 11.6667 9.33333 11.6667H10.1667V20.8333C10.1667 21.4964 10.4301 22.1322 10.8989 22.6011C11.3677 23.0699 12.0036 23.3333 12.6667 23.3333H19.3333C19.9964 23.3333 20.6323 23.0699 21.1011 22.6011C21.5699 22.1322 21.8333 21.4964 21.8333 20.8333V11.6667H22.6667C22.8877 11.6667 23.0996 11.5789 23.2559 11.4226C23.4122 11.2663 23.5 11.0543 23.5 10.8333C23.5 10.6123 23.4122 10.4003 23.2559 10.2441C23.0996 10.0878 22.8877 9.99999 22.6667 9.99999ZM14.3333 9.16666C14.3333 8.94564 14.4211 8.73368 14.5774 8.5774C14.7337 8.42112 14.9457 8.33332 15.1667 8.33332H16.8333C17.0543 8.33332 17.2663 8.42112 17.4226 8.5774C17.5789 8.73368 17.6667 8.94564 17.6667 9.16666V9.99999H14.3333V9.16666ZM20.1667 20.8333C20.1667 21.0543 20.0789 21.2663 19.9226 21.4226C19.7663 21.5789 19.5543 21.6667 19.3333 21.6667H12.6667C12.4457 21.6667 12.2337 21.5789 12.0774 21.4226C11.9211 21.2663 11.8333 21.0543 11.8333 20.8333V11.6667H20.1667V20.8333Z" fill="#CB1717"/>
</svg>
