<svg width="293" height="293" viewBox="0 0 293 293" fill="none" xmlns="http://www.w3.org/2000/svg">
<g clip-path="url(#clip0_515_1711)">
<path d="M359.893 198.95H-102.272V199.024H359.893V198.95Z" fill="#E0E0E0"/>
<path d="M279.747 216.081C279.938 213.776 279.623 210.793 276.943 209.912C272.383 208.409 269.69 204.884 269.838 200.897C269.986 196.91 265.198 193.028 261.605 196.762C258.013 200.503 258.487 193.884 253.693 192.276C248.899 190.668 244.832 194.575 246.15 198.13C247.469 201.692 242.736 203.923 237.073 200.891C231.41 197.859 225.174 203.374 226.376 207.682C227.577 211.989 226.592 212.513 223.011 211.04C220.121 209.869 215.382 212.316 214.853 216.074H279.759L279.747 216.081Z" fill="#828282"/>
<path d="M-40.6377 216.081H42.1022C43.273 212.198 40.2597 207.54 36.9752 206.88C32.9451 206.073 28.9212 198.987 28.7117 194.476C28.5022 189.965 21.2678 176.082 9.99094 184.653C-1.28589 193.225 2.14646 185.917 -6.01846 183.507C-14.1834 181.098 -19.3288 188.024 -15.7424 193.225C-15.7424 193.225 -23.9443 191.173 -27.3212 198.826C-30.6981 206.48 -27.3212 211.231 -27.3212 211.231C-27.3212 211.231 -37.6798 210.935 -40.6377 216.081Z" fill="#828282"/>
<path d="M76.7086 35.9595C75.8644 35.2385 74.8106 34.2834 75.1742 33.2728C75.47 32.4532 76.5114 32.1759 77.103 31.5289C78.3108 30.2102 77.1831 28.0595 75.7658 26.975C74.3485 25.8904 72.5183 25.0586 71.9329 23.364C71.8343 22.9079 71.6741 22.4643 71.4584 22.0452C70.608 20.7758 68.63 21.62 67.4037 22.5197C66.9847 22.8278 66.4794 23.1175 65.9617 23.327C65.783 22.6183 65.4503 21.9836 65.0004 21.6016C64.1685 20.8806 63.1025 19.9254 63.466 18.9148C63.7618 18.0829 64.8032 17.818 65.401 17.1709C66.5964 15.8522 65.4749 13.7016 64.0514 12.6171C62.628 11.5325 60.804 10.7006 60.2247 9.00603C60.12 8.54386 59.9597 8.10018 59.7379 7.68731C58.8875 6.4179 56.9095 7.24364 55.677 8.15564C54.4507 9.06765 52.4604 9.86873 51.6223 8.58084C51.1355 7.84137 51.4189 6.78763 50.9506 6.03584C50.168 4.77875 48.1838 5.37649 47.0561 6.33163C45.9284 7.28677 44.6836 8.56235 43.2417 8.22959H43.2294C43.5991 8.07553 44.0058 7.94613 44.3509 7.76742C46.1996 6.7938 45.9407 3.24437 44.5419 2.05506C43.6977 1.33408 42.644 0.391268 43.0075 -0.625495C43.3033 -1.45739 44.3447 -1.72237 44.9363 -2.38172C46.1441 -3.70043 45.0164 -5.86336 43.5991 -6.93559C42.1818 -8.01397 40.3516 -8.85203 39.7662 -10.5466C39.6676 -11.0026 39.5074 -11.4463 39.2917 -11.8653C38.4413 -13.1348 36.4509 -12.3029 35.237 -11.3909C34.0169 -10.4789 32.0203 -9.68393 31.1823 -10.978C30.7078 -11.7175 30.9789 -12.765 30.5106 -13.523C29.7403 -14.7801 27.7499 -14.1947 26.6222 -13.2272C25.4946 -12.2659 24.2498 -10.9965 22.8078 -11.3292C21.5508 -11.625 20.8606 -13.0423 19.5234 -13.2087C18.1862 -13.3689 17.1201 -12.0009 16.7935 -10.6945C16.4669 -9.38814 16.4916 -7.94619 15.7768 -6.78769C15.7152 -6.80002 15.6474 -6.81234 15.5796 -6.81851C14.6737 -7.46554 13.8603 -8.17419 13.5029 -9.19711C13.4043 -9.65312 13.2441 -10.0968 13.0284 -10.5158C12.178 -11.7852 10.1877 -10.9595 8.96754 -10.0475C7.74743 -9.13549 5.75087 -8.33441 4.90664 -9.62231C4.43216 -10.3618 4.70329 -11.4155 4.23497 -12.1673C3.46469 -13.4244 1.4743 -12.8267 0.346619 -11.8715C-0.781063 -10.9164 -2.02583 -9.64079 -3.46778 -9.98588C-4.72487 -10.2817 -5.41504 -11.699 -6.75224 -11.8653C-8.08944 -12.0256 -9.15549 -10.6576 -9.48209 -9.35117C-9.80869 -8.04478 -9.78405 -6.60283 -10.4989 -5.44433C-12.4461 -5.82023 -15.1143 -5.74628 -15.5703 -3.84216C-15.7614 -3.02875 -15.4163 -2.25848 -14.9356 -1.5375C-15.176 -1.40193 -15.404 -1.25404 -15.6012 -1.08766C-16.735 -0.132519 -17.9859 1.14306 -19.4279 0.810299C-20.6726 0.514513 -21.3567 -0.902795 -22.7062 -1.06917C-24.0557 -1.22939 -25.1218 0.138618 -25.436 1.445C-25.7503 2.75139 -25.738 4.19335 -26.4528 5.33951C-28.4124 4.97594 -31.0683 5.04373 -31.5243 6.95401C-31.8262 8.2111 -30.8526 9.37576 -30.0515 10.4048C-29.2504 11.4278 -28.5788 12.919 -29.4107 13.9358C-30.754 13.868 -32.0912 14.2008 -33.2435 14.8971C-34.4082 15.6427 -34.8704 17.1216 -34.3404 18.3972C-33.7488 19.2291 -32.8861 19.8268 -31.9063 20.1041C-29.0286 21.2688 -29.9468 23.8261 -30.8033 25.8843C-30.9019 25.8781 -30.9943 25.8781 -31.0991 25.8535C-32.3562 25.5577 -33.0463 24.1404 -34.3835 23.974C-35.7207 23.8138 -36.7868 25.1818 -37.1134 26.4882C-37.44 27.7946 -37.4153 29.2365 -38.1302 30.3827C-40.0897 30.0191 -42.7457 30.0869 -43.2017 31.9972C-43.5036 33.2543 -42.5238 34.4189 -41.7289 35.448C-40.9401 36.471 -40.2684 37.9622 -41.088 38.979C-42.4375 38.9235 -43.7747 39.2809 -44.9209 39.9957C-46.0856 40.7414 -46.5477 42.2141 -46.0239 43.4959C-45.4262 44.3278 -44.5635 44.9255 -43.5775 45.2028C-38.5245 47.2425 -45.1612 53.5834 -42.6532 53.9962C-39.4489 54.5324 -35.6714 53.9038 -35.4434 57.8538C-35.4126 58.4946 -35.3202 59.1355 -35.16 59.7579C-34.5499 61.9516 -32.9909 62.8821 -29.7742 61.3478C-27.7345 60.3865 -27.2354 59.1848 -24.9122 59.4806C-23.2484 59.6716 -22.0407 60.8424 -20.2043 60.6884C-19.9517 60.6884 -19.699 60.6206 -19.471 60.5035C-19.243 60.3556 -19.052 60.1523 -18.9103 59.9181C-17.2773 57.595 -16.0017 58.5378 -13.3335 58.4269C-13.124 58.4392 -12.9144 58.3776 -12.7481 58.2543C-12.5878 58.0879 -12.5016 57.8661 -12.5016 57.6381C-12.4338 56.9541 -12.5016 56.2701 -12.6864 55.6107C-12.822 55.2903 -12.859 54.9391 -12.785 54.594C-12.6556 54.138 -12.0764 53.9654 -11.6389 53.7498C-11.4725 53.6573 -11.3123 53.5526 -11.1582 53.4355C-10.3386 52.8008 -9.87032 51.8826 -9.76556 50.9275C-7.25138 51.1616 -4.90974 51.4697 -4.73104 54.5323C-4.70639 55.1794 -4.60779 55.8141 -4.43525 56.4365C-3.83751 58.6302 -2.27232 59.5607 0.932026 58.0263C2.97171 57.065 3.47085 55.8634 5.794 56.1592C7.4578 56.3502 8.66559 57.521 10.5019 57.367C10.7546 57.367 11.0072 57.2992 11.2352 57.1821C11.4632 57.0342 11.6543 56.8309 11.796 56.5967C13.429 54.2735 14.7045 55.2164 17.3728 55.1054C17.4282 55.1116 17.4899 55.1178 17.5453 55.1054C17.9459 55.0685 18.2416 54.7111 18.2047 54.3105C18.2663 53.645 18.2047 52.9733 18.0198 52.3325C17.8842 52.012 17.8473 51.6608 17.9212 51.3157C18.0506 50.8597 18.6299 50.6748 19.0674 50.4715C19.2399 50.379 19.4063 50.2681 19.5665 50.1449C20.0225 49.7875 20.3615 49.3376 20.5956 48.8446C21.446 49.1035 22.5922 48.9371 24.1081 48.2099C26.1601 47.2548 26.6531 46.047 28.9762 46.3551C30.64 46.5461 31.8478 47.7046 33.6841 47.5629C33.9368 47.5506 34.1894 47.489 34.4174 47.3719C34.6454 47.2178 34.8364 47.0206 34.9782 46.7865C35.0213 46.7248 35.0645 46.6694 35.1076 46.6139C35.1446 46.996 35.0768 47.3596 34.8241 47.6677C33.7581 47.6122 32.6982 47.8772 31.78 48.4256C30.8557 49.011 30.4921 50.1757 30.9173 51.1863C31.3856 51.8395 32.0635 52.3078 32.8337 52.5235C36.8084 54.1256 31.589 59.117 33.567 59.4436C36.0935 59.8688 39.0576 59.3697 39.2486 62.4878C39.2671 62.9931 39.3472 63.4984 39.4704 63.9913C39.9449 65.7168 41.1774 66.4069 43.7408 65.2299C45.3553 64.472 45.7374 63.523 47.5737 63.7572C48.8924 63.9297 49.8352 64.8294 51.2772 64.7123C51.4806 64.7123 51.6777 64.6569 51.8564 64.5706C52.029 64.4473 52.183 64.2871 52.294 64.1023C53.5695 62.2782 54.5863 63.0177 56.6876 62.9253C56.854 62.9253 57.0142 62.8821 57.1559 62.7959C57.2792 62.6603 57.3408 62.4878 57.3408 62.3091C57.3963 61.7853 57.347 61.2553 57.2114 60.7439C57.0943 60.4912 57.0635 60.2077 57.119 59.9304C57.2484 59.5669 57.6797 59.4313 58.031 59.2588C58.1604 59.1848 58.2836 59.1047 58.4007 59.0123C59.2696 58.3406 59.6331 57.2684 59.4668 56.2578C59.9289 56.1222 60.4527 56.0667 61.1552 56.153C62.819 56.344 64.0268 57.5149 65.8631 57.3608C66.1158 57.3608 66.3684 57.293 66.5964 57.1759C66.8244 57.0219 67.0093 56.8185 67.1572 56.5905C68.7779 54.2674 70.0658 55.2102 72.734 55.0993C72.9435 55.1116 73.153 55.05 73.3194 54.9267C73.4735 54.7604 73.5597 54.5385 73.5536 54.3105C73.6213 53.645 73.5659 52.9733 73.381 52.3325C73.2454 52.012 73.2023 51.6608 73.2701 51.3157C73.4118 50.8597 73.9788 50.6748 74.4286 50.4715C74.5888 50.379 74.7429 50.2804 74.8908 50.1695C76.4991 48.9248 76.801 46.6139 75.5563 45.0056C75.0386 44.4202 74.2376 43.9087 74.4286 43.0583C74.6196 42.208 75.7596 42.0724 76.5299 41.6657C78.3786 40.6921 78.1197 37.1426 76.7332 35.9533L76.7086 35.9595ZM-11.5341 47.0946C-11.6512 46.8666 -11.7066 46.6201 -11.6389 46.3305C-11.5649 45.9977 -11.3369 45.7759 -11.0535 45.6033C-11.1705 46.1025 -11.3431 46.6078 -11.5341 47.1007V47.0946Z" fill="#FFEFD6"/>
<path d="M-18.6267 48.2346C-18.6267 48.2346 -11.9592 57.6689 -9.66072 60.6637C-7.35606 63.6586 4.14877 82.293 5.70781 94.6174C5.86802 95.9238 6.04057 97.0638 6.20695 98.0436C1.2587 130.709 2.02898 190.458 2.20768 200.687H17.8782C18.0199 189.152 19.3509 83.7104 19.8439 80.4937C20.3615 77.086 26.9428 64.1084 37.0364 58.7843C47.1301 53.4601 55.9051 35.8177 55.9051 35.8177H52.6761C52.6761 35.8177 46.6926 46.6201 38.1826 52.6097C36.9625 53.454 35.6808 54.2119 34.3559 54.8836C34.3805 48.3763 33.2282 41.9245 30.9667 35.8239L29.2228 37.4261C31.5767 47.0638 31.2501 53.2321 30.5538 56.7692C27.3371 58.2728 24.3731 60.2632 21.7603 62.6603C12.9237 51.1739 7.96318 24.9106 7.96318 24.9106L5.70165 26.1492C6.34252 31.572 7.31615 36.9516 8.62254 42.2572C10.274 49.0541 15.1483 61.8469 17.4098 67.6208C14.6985 71.5154 12.4616 75.718 10.7423 80.1363C10.502 79.7665 10.2185 79.4215 9.89195 79.1195C4.14261 73.9125 -6.67205 49.3561 -6.67205 49.3561C-9.29098 43.6437 -5.29171 28.6511 -5.29171 28.6511H-8.33584L-9.68536 41.7581L-17.271 33.4823L-18.6514 34.6284L-10.6097 44.9871L-6.4687 58.1064L-17.271 46.1333L-18.6329 48.2346H-18.6267Z" fill="#828282"/>
<path d="M299.75 57.7923C298.604 57.1022 297.273 56.7694 295.936 56.831C295.122 55.8451 295.776 54.3292 296.583 53.3186C297.384 52.308 298.345 51.1495 298.043 49.8862C297.593 47.9944 294.937 47.9267 293.033 48.2964C292.497 47.0639 292.146 45.7514 291.992 44.4142C291.653 43.1016 290.612 41.7829 289.268 41.9C287.925 42.0171 287.241 43.4775 286.008 43.7672C285.916 43.7918 285.817 43.7857 285.719 43.7918C284.862 41.7336 283.919 39.164 286.81 38.0055C287.783 37.7344 288.64 37.1366 289.231 36.3109C289.755 35.0353 289.299 33.5687 288.141 32.8231C286.994 32.1329 285.663 31.794 284.326 31.8618C283.5 30.8635 284.166 29.3599 284.955 28.3493C285.743 27.3387 286.729 26.1679 286.427 24.917C285.965 23.0252 283.322 22.9574 281.405 23.3271C280.875 22.0885 280.524 20.7822 280.364 19.445C280.019 18.1324 279.051 16.8137 277.652 16.9308C276.26 17.0479 275.625 18.5083 274.393 18.7979C273.16 19.0876 271.761 17.8613 270.591 16.9185C270.4 16.7644 270.178 16.6227 269.95 16.4871C270.418 15.7723 270.745 15.0082 270.547 14.2071C270.098 12.3153 267.442 12.2475 265.538 12.6172C264.995 11.3602 264.644 10.0291 264.496 8.67344C264.157 7.36089 263.116 6.04218 261.772 6.15926C260.429 6.27634 259.745 7.73678 258.513 8.02641C257.077 8.37149 255.881 7.08975 254.711 6.14693C253.54 5.19795 251.617 4.60639 250.859 5.85731C250.385 6.6091 250.662 7.64435 250.188 8.39614C249.343 9.70868 247.371 8.87063 246.139 7.96478C244.9 7.05894 242.953 6.23937 242.09 7.50262C241.869 7.91549 241.708 8.35916 241.616 8.81517C241.234 9.88739 240.353 10.6145 239.398 11.2862C238.868 10.0538 238.516 8.75354 238.362 7.42251C238.023 6.10996 237.05 4.79125 235.651 4.92066C234.258 5.05006 233.624 6.48586 232.391 6.77548C231.153 7.0651 229.76 5.85731 228.589 4.89601C227.418 3.9347 225.496 3.35546 224.719 4.60638C224.257 5.35817 224.534 6.40575 224.047 7.14521C223.222 8.45776 221.231 7.63202 220.011 6.72618C218.785 5.82034 216.813 4.98844 215.944 6.25169C215.729 6.67072 215.568 7.10824 215.47 7.56424C214.89 9.24652 213.079 10.0784 211.668 11.1568C210.263 12.2352 209.129 14.3796 210.355 15.6922C210.947 16.3392 211.988 16.598 212.278 17.4299C212.647 18.4528 211.594 19.3895 210.749 20.0612C209.369 21.232 209.104 24.7691 210.947 25.7427C211.267 25.9091 211.649 26.0324 211.994 26.1679C210.583 26.4514 209.4 25.2189 208.248 24.2823C207.077 23.3333 205.154 22.7294 204.378 23.9803C203.916 24.7321 204.193 25.7797 203.706 26.5192C202.88 27.8317 200.89 27.006 199.658 26.1001C198.419 25.1943 196.472 24.3624 195.609 25.6256C195.399 26.0447 195.239 26.4822 195.134 26.9382C194.555 28.6205 192.744 29.4524 191.32 30.5308C189.897 31.6091 188.794 33.7536 190.007 35.0661C190.587 35.7132 191.628 35.972 191.93 36.8039C192.232 37.6296 191.234 38.7635 190.402 39.4351C189.94 39.8295 189.607 40.4827 189.428 41.216C188.917 41.0065 188.418 40.7107 188.005 40.4088C186.779 39.5029 184.807 38.671 183.956 39.9343C183.734 40.3471 183.568 40.7908 183.469 41.2468C182.89 42.9291 181.078 43.761 179.667 44.8394C178.262 45.9178 177.128 48.0622 178.355 49.3748C178.946 50.0218 179.988 50.2806 180.277 51.1125C180.647 52.1354 179.593 53.0598 178.749 53.7438C177.437 54.9269 177.104 58.464 178.946 59.4376C179.723 59.832 180.857 59.9614 181.035 60.818C181.22 61.6745 180.431 62.1305 179.92 62.7529C178.688 64.3489 178.977 66.6474 180.579 67.8799C180.727 67.9908 180.881 68.0955 181.042 68.1818C181.491 68.3913 182.027 68.5639 182.188 69.0383C182.262 69.3834 182.225 69.7408 182.083 70.0613C181.91 70.696 181.849 71.3615 181.91 72.0209C181.91 72.2489 181.997 72.4707 182.145 72.6371C182.317 72.7542 182.52 72.8096 182.724 72.8096C185.355 72.9267 186.668 71.9839 188.288 74.2947C188.424 74.5289 188.615 74.7261 188.843 74.874C189.065 74.9972 189.311 75.0588 189.564 75.0588C191.394 75.219 192.577 74.0729 194.247 73.8633C194.937 73.7771 195.455 73.8325 195.905 73.962C195.763 74.9479 196.127 75.9831 196.971 76.6363C197.088 76.7288 197.217 76.815 197.353 76.889C197.698 77.0615 198.129 77.1909 198.259 77.5607C198.314 77.838 198.283 78.1214 198.166 78.3741C198.031 78.8732 197.988 79.397 198.037 79.9146C197.994 80.2166 198.209 80.4939 198.511 80.537C198.567 80.5432 198.628 80.5432 198.684 80.537C200.773 80.6294 201.777 79.89 203.053 81.7078C203.164 81.8865 203.312 82.0468 203.484 82.17C203.663 82.2624 203.86 82.3117 204.063 82.3117C205.499 82.4288 206.442 81.5353 207.748 81.3627C209.579 81.1409 209.961 82.0714 211.563 82.8232C214.126 84.1111 215.353 83.3778 215.827 81.6524C215.95 81.1656 216.024 80.6664 216.049 80.1673C216.234 77.0739 219.192 77.536 221.706 77.1416C223.665 76.815 218.471 71.8791 222.427 70.2461C223.197 70.0428 223.869 69.5745 224.337 68.9336C224.744 67.9292 224.38 66.7768 223.468 66.1852C222.562 65.643 221.521 65.3842 220.467 65.4335C220.208 65.113 220.141 64.7371 220.196 64.3428C220.227 64.3859 220.258 64.4167 220.289 64.4598C220.43 64.694 220.615 64.8974 220.843 65.0514C221.071 65.1623 221.324 65.2301 221.583 65.2363C223.413 65.378 224.596 64.2503 226.266 64.0408C228.583 63.7389 229.07 64.9343 231.109 65.8956C232.619 66.6536 233.765 66.8384 234.616 66.5858C234.85 67.0664 235.183 67.5101 235.639 67.8614C235.793 67.9784 235.953 68.0894 236.125 68.1818C236.575 68.3913 237.111 68.5639 237.272 69.0383C237.339 69.3834 237.302 69.7408 237.167 70.0613C236.994 70.696 236.933 71.3615 236.994 72.0209C236.994 72.2489 237.074 72.4707 237.228 72.6371C237.401 72.7542 237.598 72.8096 237.808 72.8096C240.439 72.9267 241.751 71.9839 243.36 74.2947C243.495 74.5289 243.686 74.7261 243.914 74.874C244.142 74.991 244.395 75.0588 244.654 75.0588C246.472 75.219 247.667 74.0729 249.337 73.8633C251.654 73.5737 252.141 74.7569 254.181 75.7182C257.367 77.2834 258.913 76.3221 259.523 74.1406C259.69 73.5244 259.788 72.8836 259.813 72.2488C259.998 69.1677 262.302 68.8781 264.847 68.6501C264.958 69.5868 265.42 70.4803 266.222 71.1027C266.376 71.2198 266.536 71.3307 266.708 71.4231C267.14 71.6326 267.682 71.8052 267.855 72.2673C267.922 72.6186 267.885 72.976 267.75 73.3087C267.571 73.9435 267.509 74.609 267.565 75.2683C267.565 75.4963 267.651 75.7182 267.799 75.8846C267.972 76.0016 268.181 76.0633 268.391 76.0571C271.022 76.1742 272.334 75.2314 273.943 77.5422C274.078 77.7764 274.269 77.9735 274.497 78.1214C274.719 78.2447 274.966 78.3063 275.218 78.3063C277.049 78.4665 278.244 77.3203 279.902 77.1108C282.219 76.8212 282.705 78.0043 284.745 78.9657C287.931 80.5555 289.478 79.6373 290.088 77.4559C290.242 76.8335 290.334 76.1988 290.365 75.5641C290.599 71.6203 294.309 72.2489 297.55 71.7251C300.052 71.306 293.446 65.0021 298.468 62.9747C299.448 62.7098 300.305 62.1059 300.89 61.2801C301.414 60.0046 300.958 58.538 299.799 57.7923H299.75ZM266.061 63.3814C266.351 63.5478 266.579 63.7512 266.653 64.0654C266.721 64.3489 266.653 64.6016 266.53 64.8357C266.345 64.3612 266.172 63.8683 266.061 63.3814Z" fill="#FFEFD6"/>
<path d="M273.616 66.0005C273.616 66.0005 266.973 75.3917 264.687 78.368C262.401 81.3382 250.951 99.8741 249.405 112.149C249.232 113.462 249.066 114.583 248.905 115.569C253.823 148.056 253.065 207.503 252.849 217.683H237.234C237.092 206.197 235.761 101.298 235.275 98.0994C234.763 94.704 228.237 81.8004 218.175 76.5009C208.112 71.2014 199.441 53.6268 199.441 53.6268H202.652C202.652 53.6268 208.611 64.3736 217.121 70.3325C218.341 71.1644 219.61 71.9223 220.923 72.594C220.886 66.1237 222.014 59.6965 224.25 53.6268L225.988 55.2166C223.647 64.805 223.961 71.0042 224.676 74.4612C227.874 75.9586 230.832 77.9366 233.438 80.3276C242.226 68.8967 247.155 42.7751 247.155 42.7751L249.417 44.0137C248.751 49.418 247.759 54.7791 246.447 60.0601C244.801 66.82 239.952 79.5573 237.696 85.3313C240.371 89.2135 242.577 93.3914 244.271 97.7851C244.512 97.4092 244.795 97.0703 245.128 96.7745C250.853 91.5921 261.612 67.1528 261.612 67.1528C264.243 61.4713 260.232 46.5526 260.232 46.5526H263.245L264.557 59.6041L272.106 51.3714L273.486 52.5176L265.605 62.8454L261.476 75.897L272.235 63.9916L273.616 66.019V66.0005Z" fill="#828282"/>
<path d="M-83.0771 214.515H340.611C345.331 214.515 349.158 217.375 349.158 220.893V230.494H-91.624V220.881C-91.624 217.362 -87.7911 214.509 -83.0771 214.509V214.515Z" fill="#4F4F4F"/>
<path d="M192.441 215.766H196.385L188.324 170.295H184.387L192.441 215.766Z" fill="#E0E0E0"/>
<path d="M69.986 215.766H73.9236L65.8696 170.295H61.9258L69.986 215.766Z" fill="#E0E0E0"/>
<path d="M190.389 193.034H35.7051V197.021H190.389V193.034Z" fill="#E0E0E0"/>
<path d="M156.102 215.766H152.158L160.218 170.295H164.156L156.102 215.766Z" fill="#E0E0E0"/>
<path d="M33.6408 215.766H29.7031L37.7571 170.295H41.6948L33.6408 215.766Z" fill="#E0E0E0"/>
<path d="M69.3809 168.527H73.3L79.8628 132.041H75.9436L69.3809 168.527Z" fill="#E0E0E0"/>
<path d="M183.08 168.527H187.005L193.568 132.041H189.649L183.08 168.527Z" fill="#E0E0E0"/>
<path d="M126.234 168.527H130.147L136.716 132.041H132.791L126.234 168.527Z" fill="#E0E0E0"/>
<path d="M62.6025 134.53H201.425L202.651 127.696H63.835L62.6025 134.53Z" fill="#E0E0E0"/>
<path d="M60.3779 146.885H199.2L200.432 140.051H61.6104L60.3779 146.885Z" fill="#E0E0E0"/>
<path d="M58.1543 159.234H196.976L198.209 152.407H59.3867L58.1543 159.234Z" fill="#E0E0E0"/>
<path d="M195.953 167.455H28.8711V172.175H195.953V167.455Z" fill="#E0E0E0"/>
<path d="M310.018 203.466C310.018 205.555 232.159 207.244 136.121 207.244C40.083 207.244 -37.7764 205.549 -37.7764 203.466C-37.7764 201.383 40.083 199.689 136.121 199.689C232.159 199.689 310.018 201.383 310.018 203.466Z" fill="#BDBDBD"/>
<path d="M255.85 119.397H252.425V258.261H255.85V119.397Z" fill="#999999"/>
<path opacity="0.6" d="M255.85 119.397H252.425V258.261H255.85V119.397Z" fill="#F9F9F9"/>
<path opacity="0.3" d="M255.85 126.328H252.425V128.319H255.85V126.328Z" fill="#2B2B2B"/>
<path d="M268.766 78.793H239.403C237.815 78.793 236.528 80.0798 236.528 81.6672V123.454C236.528 125.041 237.815 126.328 239.403 126.328H268.766C270.354 126.328 271.64 125.041 271.64 123.454V81.6672C271.64 80.0798 270.354 78.793 268.766 78.793Z" fill="#666666"/>
<path d="M267.942 124.107H240.34C239.456 124.107 238.739 123.39 238.739 122.507V82.5665C238.739 81.6833 239.456 80.9661 240.34 80.9661H267.942C268.825 80.9661 269.543 81.6833 269.543 82.5665V122.507C269.543 123.39 268.825 124.107 267.942 124.107ZM240.34 81.2337C239.606 81.2337 239.007 81.8332 239.007 82.5665V122.507C239.007 123.24 239.606 123.839 240.34 123.839H267.942C268.676 123.839 269.275 123.24 269.275 122.507V82.5665C269.275 81.8332 268.676 81.2337 267.942 81.2337H240.34Z" fill="#B09000"/>
<path d="M257.997 88.5399C258.966 88.9788 259.71 89.5997 260.234 90.4026C260.759 91.2055 261.016 92.1635 261.016 93.2608C261.016 94.3581 260.754 95.3001 260.234 96.1083C259.71 96.9219 258.966 97.5428 257.997 97.971C257.028 98.4045 255.888 98.6186 254.577 98.6186H251.59V102.708H248.159V87.8762H254.582C255.893 87.8762 257.034 88.0957 258.002 88.5346L257.997 88.5399ZM256.739 95.1609C257.274 94.7167 257.542 94.0851 257.542 93.2661C257.542 92.4472 257.274 91.7942 256.739 91.35C256.204 90.9057 255.417 90.6809 254.389 90.6809H251.59V95.83H254.389C255.422 95.83 256.204 95.6052 256.739 95.1609Z" fill="#F3F3F3"/>
<path d="M248.593 119.129C246.431 119.129 244.67 117.368 244.67 115.206C244.67 113.043 246.431 111.282 248.593 111.282C250.756 111.282 252.517 113.043 252.517 115.206C252.517 117.368 250.756 119.129 248.593 119.129ZM248.593 111.818C246.725 111.818 245.205 113.338 245.205 115.206C245.205 117.074 246.725 118.594 248.593 118.594C250.461 118.594 251.981 117.074 251.981 115.206C251.981 113.338 250.461 111.818 248.593 111.818Z" fill="#B09000"/>
<path d="M260.572 119.129C258.409 119.129 256.648 117.368 256.648 115.206C256.648 113.043 258.409 111.282 260.572 111.282C262.734 111.282 264.495 113.043 264.495 115.206C264.495 117.368 262.734 119.129 260.572 119.129ZM260.572 111.818C258.704 111.818 257.184 113.338 257.184 115.206C257.184 117.074 258.704 118.594 260.572 118.594C262.44 118.594 263.96 117.074 263.96 115.206C263.96 113.338 262.44 111.818 260.572 111.818Z" fill="#B09000"/>
<path d="M260.572 115.473C260.47 115.473 260.374 115.414 260.326 115.318L258.03 110.228H251.987L248.85 114.943H254.053C254.203 114.943 254.321 115.061 254.321 115.211C254.321 115.361 254.203 115.479 254.053 115.479H248.353C248.256 115.479 248.165 115.425 248.117 115.34C248.069 115.254 248.074 115.147 248.128 115.067L251.623 109.816C251.671 109.741 251.757 109.698 251.848 109.698H258.206C258.313 109.698 258.404 109.762 258.453 109.853L260.824 115.104C260.883 115.238 260.824 115.398 260.69 115.457C260.652 115.473 260.615 115.479 260.578 115.479L260.572 115.473Z" fill="#B09000"/>
<path d="M258.207 110.223C258.1 110.223 258.003 110.158 257.96 110.057L257.104 108.012C257.045 107.878 257.109 107.723 257.243 107.664C257.955 107.359 259.116 106.861 259.207 106.813C259.341 106.749 259.502 106.802 259.566 106.931C259.63 107.065 259.577 107.225 259.448 107.289C259.341 107.343 258.223 107.825 257.703 108.05L258.458 109.848C258.517 109.982 258.453 110.142 258.314 110.196C258.281 110.212 258.244 110.217 258.212 110.217L258.207 110.223Z" fill="#B09000"/>
<path d="M254.053 115.473C254.053 115.473 254.026 115.473 254.01 115.473C253.919 115.457 253.839 115.399 253.807 115.313C252.747 112.819 251.115 109.029 250.917 108.681C250.858 108.612 250.836 108.515 250.868 108.424C250.917 108.285 251.066 108.21 251.206 108.253C251.356 108.301 251.42 108.323 254.133 114.708L258.137 110.078C258.233 109.966 258.405 109.955 258.512 110.051C258.624 110.148 258.635 110.319 258.539 110.431L254.257 115.388C254.203 115.447 254.133 115.479 254.053 115.479V115.473Z" fill="#B09000"/>
<path d="M249.675 108.124C249.675 108.333 249.846 108.504 250.055 108.504H252.774C252.983 108.504 253.154 108.333 253.154 108.124C253.154 107.916 252.983 107.744 252.774 107.744H250.055C249.846 107.744 249.675 107.916 249.675 108.124Z" fill="#B09000"/>
<path opacity="0.2" d="M271.64 83.6316L236.528 101.097V108.504L271.64 91.0394V83.6316Z" fill="#B09000"/>
<path opacity="0.2" d="M271.7 93.7371L236.582 111.202V115.206L271.7 98.019V93.7371Z" fill="#B09000"/>
<path d="M261.845 265.496H258.425V209.392C258.425 196.218 247.706 185.506 234.539 185.506C221.371 185.506 210.646 196.225 210.646 209.392V265.496H207.226V209.392C207.226 194.337 219.477 182.086 234.539 182.086C249.601 182.086 261.845 194.337 261.845 209.392V265.496Z" fill="#B09000"/>
<path opacity="0.1" d="M261.845 265.496H258.425V209.392C258.425 196.218 247.706 185.506 234.539 185.506C221.371 185.506 210.646 196.225 210.646 209.392V265.496H207.226V209.392C207.226 194.337 219.477 182.086 234.539 182.086C249.601 182.086 261.845 194.337 261.845 209.392V265.496Z" fill="#F9F9F9"/>
<path d="M107.139 158.434L111.339 176.216L115.396 176.307L111.195 158.526L107.139 158.434Z" fill="#666666"/>
<path d="M91.9657 154.108C88.733 159.829 106.395 161.448 113.996 160.281C121.597 159.113 131.916 161.571 132.01 157.34C132.104 153.109 97.996 143.437 91.9657 154.108Z" fill="#B09000"/>
<path d="M182.366 163.44L177.986 164.024L177.305 158.92C175.781 158.068 173.216 156.437 172.104 154.575C171.005 152.733 170.304 149.616 169.491 146.006C168.38 141.069 166.701 133.606 163.877 132.431C161.735 131.542 152.716 133.529 145.589 135.884L144.203 131.688C148.044 130.418 160.94 126.426 165.573 128.351C170.51 130.405 172.259 138.178 173.802 145.036C174.471 148.005 175.161 151.075 175.899 152.312C176.494 153.308 178.888 154.812 180.318 155.515L181.378 156.036L182.366 163.44Z" fill="#666666"/>
<path d="M136.984 138.65C135.317 138.873 133.721 137.8 133.325 136.13C132.903 134.35 134.003 132.563 135.785 132.14L152.374 128.205C154.16 127.79 155.942 128.885 156.363 130.664C156.786 132.445 155.685 134.232 153.904 134.654L137.314 138.59C137.204 138.616 137.093 138.636 136.984 138.65Z" fill="#6C6C6C"/>
<path d="M179.934 160.68L176.761 161.711L175.56 158.013C174.311 157.589 172.184 156.728 171.105 155.497C170.038 154.278 169.092 152.059 167.997 149.49C166.498 145.975 164.234 140.662 161.976 140.175C160.265 139.807 153.838 142.512 148.867 145.232L147.266 142.305C149.945 140.839 158.977 136.116 162.68 136.913C166.626 137.765 168.984 143.299 171.066 148.182C171.967 150.295 172.898 152.48 173.614 153.298C174.192 153.957 176.175 154.748 177.333 155.074L178.191 155.317L179.934 160.68Z" fill="#666666"/>
<path d="M142.854 148.46C141.647 148.852 140.315 148.274 139.793 147.088C139.237 145.823 139.811 144.346 141.076 143.789L152.858 138.605C154.128 138.053 155.6 138.623 156.156 139.887C156.712 141.152 156.139 142.629 154.874 143.186L143.091 148.37C143.013 148.404 142.933 148.434 142.854 148.46Z" fill="#6C6C6C"/>
<path d="M62.1589 192.608C62.1256 195.625 61.9433 198.63 61.6546 201.626C61.4878 203.122 61.2751 204.615 61.13 206.113C60.9897 207.611 60.9019 209.114 60.8333 210.618C60.7075 213.627 60.5054 216.63 60.2627 219.63C59.9872 222.627 59.6709 225.621 59.2287 228.605L59.1665 228.599C59.2126 225.584 59.3846 222.578 59.5975 219.576C59.8432 216.576 60.1294 213.58 60.4919 210.59C60.6674 209.094 60.8239 207.597 60.9278 206.096C61.0269 204.594 61.0582 203.087 61.1354 201.584C61.335 198.58 61.6415 195.586 62.0964 192.603L62.1589 192.608Z" fill="#666666"/>
<path d="M55.8639 192.641C56.3551 195.617 56.6974 198.608 56.9332 201.609C57.0291 203.111 57.0784 204.618 57.1956 206.118C57.3176 207.618 57.4923 209.113 57.6858 210.607C58.0845 213.592 58.4069 216.585 58.6889 219.581C58.9381 222.58 59.1463 225.584 59.2291 228.599L59.1668 228.605C58.6888 225.627 58.336 222.637 58.0243 219.643C57.7454 216.647 57.5069 213.646 57.3448 210.639C57.258 209.135 57.1523 207.634 56.9936 206.137C56.8305 204.641 56.5998 203.151 56.4147 201.657C56.0899 198.665 55.8714 195.663 55.8016 192.646L55.8639 192.641Z" fill="#666666"/>
<path d="M49.6695 193.766C50.67 196.612 51.5264 199.498 52.28 202.412C52.6352 203.875 52.9454 205.35 53.3214 206.808C53.702 208.264 54.1335 209.706 54.5836 211.143C55.4945 214.013 56.3318 216.905 57.1297 219.807C57.8959 222.717 58.6225 225.639 59.2276 228.594L59.1672 228.61C58.1793 225.76 57.3129 222.877 56.4859 219.983C55.691 217.081 54.9351 214.167 54.2531 211.233C53.9066 209.768 53.5417 208.308 53.1257 206.862C52.7053 205.416 52.2192 203.989 51.7776 202.55C50.9382 199.66 50.2015 196.741 49.609 193.783L49.6695 193.766Z" fill="#666666"/>
<path d="M43.7659 195.95C45.2455 198.579 46.5901 201.272 47.838 204.011C48.4418 205.39 49.0036 206.789 49.6269 208.159C50.2547 209.527 50.93 210.872 51.6227 212.209C53.0184 214.878 54.3449 217.58 55.6345 220.299C56.8947 223.033 58.1175 225.783 59.2264 228.588L59.1699 228.615C57.7022 225.98 56.3484 223.291 55.0314 220.585C53.7445 217.865 52.4942 215.127 51.3132 212.356C50.7175 210.973 50.1044 209.598 49.4436 208.246C48.7787 206.896 48.0521 205.575 47.3674 204.234C46.0387 201.533 44.8064 198.787 43.7093 195.976L43.7659 195.95Z" fill="#666666"/>
<path d="M38.3294 199.126C40.2433 201.458 42.035 203.877 43.7397 206.358C44.5738 207.611 45.3699 208.891 46.2218 210.132C47.0774 211.37 47.9761 212.577 48.8905 213.774C50.7283 216.16 52.5039 218.59 54.2463 221.045C55.9618 223.518 57.6438 226.014 59.2229 228.584L59.1717 228.62C57.2688 226.28 55.4686 223.867 53.7018 221.431C51.9619 218.975 50.2553 216.496 48.6109 213.972C47.7842 212.714 46.9418 211.466 46.0562 210.25C45.167 209.035 44.222 207.861 43.3149 206.659C41.5373 204.23 39.8469 201.739 38.2785 199.162L38.3294 199.126Z" fill="#666666"/>
<path d="M33.5282 203.197C35.8178 205.162 38.0026 207.233 40.1122 209.38C41.1511 210.469 42.1576 211.592 43.2119 212.666C44.2693 213.736 45.3641 214.769 46.4723 215.789C48.6968 217.819 50.8673 219.905 53.0093 222.019C55.1281 224.156 57.2181 226.323 59.2196 228.58L59.1757 228.624C56.8953 226.65 54.7032 224.586 52.5402 222.493C50.4002 220.377 48.2891 218.232 46.2316 216.032C45.199 214.937 44.1526 213.854 43.0693 212.81C41.9826 211.769 40.8479 210.776 39.746 209.75C37.5736 207.667 35.4764 205.507 33.4843 203.241L33.5282 203.197Z" fill="#666666"/>
<path d="M29.5061 208.041C32.1021 209.578 34.6131 211.238 37.0636 212.986C38.2759 213.878 39.4619 214.809 40.6868 215.684C41.9141 216.554 43.1717 217.382 44.4401 218.193C46.9832 219.807 49.4829 221.483 51.9597 223.194C54.4175 224.931 56.8519 226.702 59.2148 228.576L59.1793 228.628C56.5905 227.08 54.0736 225.428 51.58 223.743C49.1051 222.03 46.6533 220.284 44.2453 218.475C43.0379 217.575 41.8197 216.691 40.5713 215.851C39.3204 215.014 38.0308 214.233 36.7674 213.414C34.2663 211.74 31.826 209.977 29.4705 208.092L29.5061 208.041Z" fill="#666666"/>
<path d="M26.387 213.509C29.2107 214.572 31.9719 215.771 34.6885 217.067C36.0375 217.735 37.3671 218.446 38.7252 219.094C40.0852 219.739 41.4671 220.335 42.8572 220.914C45.642 222.061 48.3949 223.278 51.1307 224.532C53.8529 225.816 56.558 227.138 59.2105 228.573L59.1844 228.63C56.3663 227.555 53.6008 226.366 50.8524 225.139C48.1177 223.882 45.4 222.589 42.7142 221.225C41.3692 220.549 40.0157 219.89 38.6405 219.279C37.2633 218.672 35.8575 218.127 34.4713 217.54C31.7175 216.325 29.0079 215.013 26.361 213.566L26.387 213.509Z" fill="#666666"/>
<path d="M24.2645 219.435C27.2299 219.992 30.1572 220.693 33.0578 221.498C34.502 221.922 35.935 222.391 37.385 222.794C38.8361 223.192 40.3008 223.539 41.7703 223.868C44.7121 224.514 47.6345 225.235 50.5464 225.995C53.4503 226.787 56.3437 227.618 59.2051 228.572L59.1894 228.632C56.2274 228.063 53.2973 227.372 50.3777 226.641C47.4662 225.878 44.5652 225.076 41.6835 224.199C40.2414 223.767 38.794 223.353 37.3335 222.99C35.8719 222.631 34.393 222.339 32.9259 222.002C30.0028 221.283 27.1068 220.462 24.2486 219.496L24.2645 219.435Z" fill="#666666"/>
<path d="M23.2039 225.641C26.2208 225.674 29.2256 225.856 32.2217 226.145C33.7177 226.312 35.2101 226.525 36.7084 226.67C38.2065 226.81 39.7091 226.898 41.2135 226.966C44.2228 227.092 47.2258 227.294 50.2257 227.537C53.2229 227.813 56.2165 228.129 59.2002 228.571L59.1953 228.633C56.1794 228.587 53.1737 228.415 50.1716 228.202C47.172 227.957 44.1756 227.67 41.1857 227.308C39.6902 227.132 38.1932 226.976 36.6918 226.872C35.1901 226.773 33.6828 226.742 32.1793 226.664C29.176 226.465 26.1814 226.158 23.1987 225.703L23.2039 225.641Z" fill="#666666"/>
<path d="M23.2363 231.936C26.2131 231.445 29.2039 231.103 32.2045 230.867C33.7069 230.771 35.2138 230.722 36.7141 230.604C38.2142 230.482 39.7092 230.308 41.2024 230.114C44.1879 229.715 47.1805 229.393 50.1768 229.111C53.1763 228.862 56.1795 228.654 59.1946 228.571L59.2004 228.633C56.2224 229.111 53.2327 229.464 50.2389 229.776C47.2424 230.055 44.2419 230.293 41.2342 230.455C39.731 230.542 38.2296 230.648 36.733 230.806C35.2371 230.969 33.7472 231.2 32.2531 231.385C29.2606 231.71 26.2584 231.929 23.2422 231.998L23.2363 231.936Z" fill="#666666"/>
<path d="M24.3617 238.13C27.2079 237.13 30.0938 236.273 33.0078 235.52C34.4709 235.164 35.9462 234.854 37.4033 234.478C38.8594 234.097 40.3013 233.666 41.7384 233.216C44.6092 232.305 47.5003 231.468 50.4024 230.67C53.3129 229.904 56.2342 229.177 59.1893 228.572L59.2058 228.632C56.356 229.62 53.4729 230.487 50.579 231.313C47.6762 232.109 44.7628 232.865 41.8291 233.547C40.3637 233.893 38.9034 234.258 37.4572 234.674C36.012 235.094 34.585 235.58 33.1458 236.022C30.2552 236.861 27.3364 237.598 24.3782 238.19L24.3617 238.13Z" fill="#666666"/>
<path d="M26.5458 244.035C29.1751 242.555 31.8684 241.21 34.6073 239.962C35.9865 239.359 37.3854 238.797 38.7553 238.173C40.1231 237.546 41.4681 236.87 42.8052 236.178C45.4743 234.782 48.1761 233.455 50.8953 232.166C53.6288 230.906 56.3797 229.683 59.1846 228.574L59.2113 228.63C56.5764 230.098 53.8875 231.452 51.181 232.769C48.4605 234.056 45.7226 235.306 42.9519 236.487C41.5689 237.083 40.1942 237.696 38.8421 238.357C37.492 239.022 36.1711 239.748 34.8303 240.433C32.1296 241.762 29.383 242.994 26.5725 244.091L26.5458 244.035Z" fill="#666666"/>
<path d="M29.7213 249.47C32.0536 247.556 34.4725 245.764 36.9531 244.06C38.2064 243.226 39.4866 242.429 40.7273 241.578C41.9654 240.722 43.1729 239.823 44.3692 238.909C46.7554 237.071 49.1858 235.295 51.6397 233.553C54.1127 231.838 56.6097 230.155 59.1792 228.576L59.2156 228.627C56.8755 230.53 54.4626 232.331 52.026 234.098C49.5702 235.837 47.0909 237.544 44.5675 239.188C43.309 240.015 42.0616 240.858 40.8447 241.743C39.6306 242.632 38.4558 243.577 37.2543 244.484C34.8254 246.262 32.3346 247.952 29.7573 249.521L29.7213 249.47Z" fill="#666666"/>
<path d="M33.7932 254.272C35.7579 251.982 37.829 249.797 39.976 247.688C41.0653 246.649 42.1878 245.642 43.2617 244.588C44.3324 243.53 45.3655 242.436 46.3848 241.327C48.4156 239.103 50.5009 236.932 52.6149 234.79C54.7525 232.671 56.9194 230.582 59.1757 228.58L59.2202 228.624C57.2462 230.905 55.1826 233.097 53.0898 235.26C50.9735 237.399 48.8283 239.511 46.6286 241.568C45.5328 242.601 44.4508 243.647 43.4063 244.73C42.3649 245.817 41.3721 246.952 40.3464 248.054C38.263 250.226 36.1035 252.323 33.8378 254.315L33.7932 254.272Z" fill="#666666"/>
<path d="M38.6359 258.293C40.1732 255.697 41.8333 253.186 43.5814 250.735C44.4739 249.523 45.4044 248.337 46.2791 247.112C47.1498 245.885 47.9771 244.627 48.7887 243.359C50.4023 240.816 52.0789 238.316 53.7889 235.839C55.526 233.382 57.297 230.947 59.1715 228.584L59.2231 228.62C57.675 231.208 56.0234 233.725 54.3379 236.219C52.6255 238.694 50.8794 241.145 49.0704 243.554C48.1706 244.761 47.2865 245.979 46.4459 247.228C45.6093 248.478 44.8286 249.768 44.0099 251.032C42.3353 253.533 40.5727 255.973 38.6874 258.328L38.6359 258.293Z" fill="#666666"/>
<path d="M44.1044 261.412C45.1675 258.589 46.3665 255.828 47.6622 253.111C48.3307 251.762 49.0413 250.432 49.6899 249.074C50.3342 247.714 50.9306 246.332 51.5095 244.942C52.657 242.157 53.8742 239.405 55.1281 236.669C56.4121 233.947 57.7333 231.241 59.1693 228.589L59.226 228.615C58.1512 231.433 56.9616 234.199 55.7348 236.947C54.4779 239.682 53.1843 242.4 51.8208 245.085C51.1444 246.43 50.4853 247.784 49.8743 249.159C49.2675 250.536 48.7228 251.942 48.1358 253.328C46.9209 256.082 45.6088 258.791 44.1614 261.438L44.1044 261.412Z" fill="#666666"/>
<path d="M50.0309 263.535C50.5875 260.57 51.2887 257.642 52.0933 254.742C52.5174 253.297 52.9862 251.864 53.3891 250.414C53.7876 248.963 54.1348 247.498 54.4635 246.029C55.1101 243.087 55.8306 240.165 56.5904 237.253C57.3822 234.349 58.2137 231.456 59.1671 228.594L59.2277 228.61C58.6585 231.572 57.9673 234.502 57.2363 237.422C56.4734 240.333 55.6712 243.234 54.795 246.116C54.3624 247.558 53.9484 249.005 53.5854 250.466C53.227 251.927 52.9344 253.406 52.5971 254.873C51.8791 257.796 51.0576 260.692 50.0914 263.551L50.0309 263.535Z" fill="#666666"/>
<path d="M56.2371 264.596C56.2702 261.579 56.4524 258.574 56.741 255.578C56.9079 254.082 57.1208 252.59 57.2656 251.092C57.4061 249.593 57.4939 248.091 57.5625 246.586C57.6882 243.577 57.8904 240.574 58.133 237.574C58.4085 234.577 58.725 231.583 59.167 228.6L59.2292 228.605C59.183 231.621 59.011 234.626 58.7982 237.628C58.5525 240.628 58.2662 243.624 57.9039 246.614C57.7283 248.11 57.5719 249.607 57.4681 251.108C57.3689 252.61 57.3375 254.117 57.2603 255.62C57.0605 258.624 56.7545 261.619 56.2992 264.601L56.2371 264.596Z" fill="#666666"/>
<path d="M62.5318 264.563C62.041 261.587 61.6985 258.596 61.4625 255.595C61.3667 254.093 61.3175 252.586 61.2001 251.086C61.0782 249.586 60.9036 248.091 60.7099 246.597C60.3113 243.612 59.9889 240.619 59.7071 237.623C59.4578 234.623 59.2495 231.62 59.1668 228.605L59.2291 228.599C59.7072 231.577 60.0598 234.567 60.3715 237.561C60.6504 240.558 60.8888 243.558 61.0512 246.565C61.1379 248.069 61.2437 249.57 61.4022 251.067C61.5651 252.563 61.7964 254.053 61.9811 255.547C62.3059 258.539 62.5245 261.541 62.5942 264.558L62.5318 264.563Z" fill="#666666"/>
<path d="M68.7257 263.438C67.7253 260.592 66.8686 257.706 66.1152 254.792C65.7601 253.329 65.4499 251.853 65.0738 250.396C64.6932 248.94 64.2616 247.498 63.8118 246.061C62.9006 243.19 62.0634 240.299 61.2654 237.397C60.4991 234.487 59.7726 231.565 59.1676 228.61L59.2279 228.594C60.2158 231.443 61.0822 234.327 61.9091 237.22C62.7043 240.123 63.46 243.037 64.1421 245.971C64.4885 247.436 64.8536 248.896 65.2694 250.342C65.6899 251.788 66.1761 253.215 66.6174 254.654C67.4571 257.544 68.1935 260.463 68.786 263.421L68.7257 263.438Z" fill="#666666"/>
<path d="M74.6301 261.254C73.1503 258.625 71.8056 255.932 70.5577 253.193C69.9541 251.813 69.3922 250.414 68.7688 249.045C68.1413 247.677 67.466 246.332 66.7731 244.995C65.3775 242.326 64.0509 239.624 62.7611 236.905C61.5011 234.171 60.2784 231.42 59.1693 228.616L59.2258 228.589C60.6938 231.224 62.0475 233.912 63.3645 236.619C64.6514 239.339 65.9017 242.077 67.0828 244.848C67.6785 246.231 68.2914 247.606 68.9522 248.958C69.6172 250.308 70.3439 251.629 71.0286 252.97C72.3573 255.67 73.5893 258.417 74.6866 261.228L74.6301 261.254Z" fill="#666666"/>
<path d="M80.0655 258.079C78.1518 255.746 76.3602 253.327 74.6554 250.846C73.8212 249.593 73.0251 248.313 72.1733 247.072C71.3177 245.834 70.4189 244.627 69.5048 243.43C67.6667 241.044 65.8911 238.614 64.1488 236.16C62.4334 233.687 60.7513 231.19 59.172 228.62L59.2232 228.584C61.1262 230.924 62.9264 233.337 64.6932 235.774C66.4331 238.229 68.1398 240.709 69.7841 243.232C70.6109 244.491 71.4533 245.738 72.3387 246.955C73.2283 248.169 74.173 249.344 75.0802 250.545C76.8578 252.974 78.5482 255.465 80.1166 258.042L80.0655 258.079Z" fill="#666666"/>
<path d="M84.867 254.007C82.5773 252.042 80.3927 249.971 78.283 247.824C77.2442 246.735 76.2378 245.612 75.1834 244.538C74.1258 243.468 73.0312 242.435 71.923 241.415C69.6986 239.385 67.528 237.299 65.3859 235.185C63.267 233.048 61.1771 230.881 59.1757 228.624L59.2197 228.58C61.5001 230.554 63.6921 232.618 65.8551 234.71C67.9949 236.827 70.1063 238.972 72.1638 241.172C73.1965 242.267 74.2429 243.349 75.326 244.394C76.4128 245.435 77.5472 246.428 78.6493 247.454C80.8218 249.537 82.9188 251.697 84.9112 253.962L84.867 254.007Z" fill="#666666"/>
<path d="M88.8892 249.164C86.293 247.626 83.782 245.966 81.3318 244.218C80.1193 243.326 78.9333 242.395 77.7084 241.52C76.4809 240.65 75.2236 239.822 73.9552 239.011C71.4119 237.397 68.9121 235.721 66.4356 234.011C63.9778 232.273 61.5431 230.503 59.1805 228.628L59.216 228.576C61.8045 230.124 64.3216 231.776 66.8152 233.462C69.2901 235.174 71.7417 236.92 74.1501 238.729C75.3572 239.629 76.5756 240.513 77.8239 241.353C79.0748 242.19 80.3645 242.971 81.6279 243.79C84.129 245.464 86.5693 247.227 88.9248 249.112L88.8892 249.164Z" fill="#666666"/>
<path d="M92.0076 243.695C89.1841 242.632 86.4228 241.433 83.7062 240.137C82.3572 239.469 81.0276 238.758 79.6695 238.11C78.3095 237.465 76.9274 236.869 75.5375 236.29C72.7527 235.143 69.9999 233.926 67.2639 232.672C64.5416 231.388 61.8367 230.066 59.1843 228.63L59.2104 228.574C62.0283 229.649 64.794 230.838 67.5423 232.065C70.277 233.322 72.9947 234.615 75.6805 235.979C77.0258 236.655 78.3787 237.314 79.7542 237.925C81.1314 238.532 82.5371 239.077 83.9234 239.664C86.6775 240.879 89.3867 242.191 92.0337 243.638L92.0076 243.695Z" fill="#666666"/>
<path d="M94.1306 237.769C91.1655 237.212 88.2381 236.511 85.3376 235.706C83.893 235.282 82.4602 234.813 81.0103 234.411C79.559 234.012 78.0943 233.665 76.6249 233.336C73.6833 232.689 70.7608 231.969 67.8487 231.209C64.9448 230.417 62.0515 229.586 59.19 228.633L59.2058 228.572C62.1679 229.141 65.0978 229.832 68.0175 230.563C70.9289 231.326 73.8299 232.128 76.7116 233.004C78.1538 233.437 79.6011 233.851 81.0615 234.214C82.5232 234.573 84.0021 234.865 85.4693 235.202C88.3923 235.92 91.2883 236.742 94.1465 237.708L94.1306 237.769Z" fill="#666666"/>
<path d="M95.1912 231.563C92.1742 231.53 89.1694 231.348 86.1733 231.059C84.6771 230.893 83.1847 230.679 81.6868 230.534C80.1884 230.394 78.6858 230.306 77.1816 230.238C74.1723 230.112 71.1691 229.91 68.1692 229.667C65.1721 229.392 62.1783 229.075 59.1948 228.633L59.1998 228.571C62.2156 228.617 65.2213 228.789 68.2234 229.002C71.223 229.248 74.2191 229.534 77.2093 229.896C78.7047 230.072 80.2019 230.228 81.7032 230.332C83.205 230.431 84.7124 230.463 86.2158 230.54C89.219 230.74 92.2137 231.046 95.1962 231.501L95.1912 231.563Z" fill="#666666"/>
<path d="M95.1584 225.268C92.1816 225.759 89.1909 226.102 86.1901 226.338C84.6878 226.433 83.1809 226.483 81.6807 226.6C80.1806 226.722 78.6856 226.897 77.1924 227.09C74.2069 227.489 71.2144 227.811 68.2179 228.093C65.2185 228.342 62.2152 228.551 59.2001 228.634L59.1943 228.571C62.1724 228.093 65.1621 227.74 68.1557 227.429C71.1523 227.15 74.1528 226.911 77.1604 226.749C78.6637 226.662 80.1651 226.557 81.6616 226.398C83.1579 226.235 84.6476 226.004 86.1417 225.819C89.134 225.494 92.1365 225.276 95.1527 225.206L95.1584 225.268Z" fill="#666666"/>
<path d="M94.033 219.074C91.1867 220.074 88.3008 220.931 85.3867 221.684C83.9238 222.039 82.4486 222.35 80.9912 222.726C79.5351 223.107 78.0932 223.538 76.6562 223.988C73.7854 224.899 70.8941 225.736 67.9923 226.534C65.0818 227.3 62.1602 228.027 59.2053 228.632L59.1888 228.572C62.0386 227.584 64.9216 226.717 67.8158 225.891C70.7183 225.096 73.6318 224.339 76.5656 223.658C78.0309 223.311 79.4912 222.946 80.9376 222.53C82.3826 222.11 83.8096 221.624 85.2489 221.182C88.1394 220.343 91.0581 219.606 94.0163 219.014L94.033 219.074Z" fill="#666666"/>
<path d="M91.8501 213.17C89.2206 214.649 86.5273 215.994 83.7884 217.242C82.4092 217.846 81.0102 218.408 79.6403 219.031C78.2727 219.659 76.9274 220.334 75.5904 221.027C72.9214 222.423 70.2195 223.749 67.5003 225.039C64.767 226.299 62.0161 227.521 59.2111 228.63L59.1845 228.574C61.8192 227.106 64.5082 225.752 67.2146 224.435C69.9351 223.148 72.673 221.898 75.4437 220.717C76.8266 220.121 78.2015 219.508 79.5535 218.847C80.9037 218.183 82.2247 217.456 83.5653 216.771C86.2661 215.443 89.0127 214.21 91.8232 213.113L91.8501 213.17Z" fill="#666666"/>
<path d="M88.6738 207.734C86.3414 209.648 83.9224 211.44 81.4418 213.145C80.1884 213.979 78.9083 214.775 77.6676 215.626C76.4294 216.482 75.2221 217.381 74.0258 218.295C71.6396 220.133 69.2091 221.909 66.7552 223.651C64.2821 225.366 61.7852 227.048 59.2157 228.628L59.1793 228.577C61.5194 226.674 63.9324 224.873 66.369 223.107C68.8248 221.367 71.3041 219.66 73.8274 218.016C75.0859 217.189 76.3334 216.346 77.5501 215.461C78.7644 214.572 79.9389 213.627 81.1405 212.72C83.5696 210.942 86.0604 209.252 88.6374 207.683L88.6738 207.734Z" fill="#666666"/>
<path d="M84.6022 202.933C82.6376 205.222 80.5665 207.407 78.4197 209.517C77.3301 210.556 76.2076 211.562 75.1337 212.616C74.0631 213.674 73.0299 214.769 72.0107 215.877C69.9798 218.101 67.8946 220.272 65.7805 222.414C63.6429 224.533 61.4762 226.623 59.2196 228.624L59.1751 228.58C61.1492 226.3 63.2128 224.108 65.3056 221.945C67.4219 219.805 69.5671 217.694 71.7668 215.636C72.8627 214.603 73.9448 213.557 74.9893 212.474C76.0306 211.387 77.0234 210.253 78.0491 209.151C80.1324 206.978 82.292 204.881 84.5577 202.889L84.6022 202.933Z" fill="#666666"/>
<path d="M79.7592 198.911C78.222 201.507 76.5618 204.018 74.8137 206.468C73.9212 207.681 72.9907 208.867 72.116 210.092C71.2453 211.319 70.4181 212.577 69.6066 213.845C67.9929 216.388 66.3163 218.888 64.6062 221.364C62.8691 223.822 61.0981 226.257 59.2236 228.62L59.172 228.584C60.7201 225.996 62.3718 223.479 64.0572 220.985C65.7697 218.51 67.5157 216.059 69.3246 213.65C70.2245 212.443 71.1087 211.225 71.9491 209.976C72.7858 208.725 73.5665 207.436 74.3853 206.172C76.06 203.671 77.8224 201.231 79.7077 198.875L79.7592 198.911Z" fill="#666666"/>
<path d="M74.2905 195.792C73.2272 198.615 72.0285 201.377 70.7325 204.093C70.064 205.442 69.3535 206.772 68.705 208.13C68.0605 209.49 67.4642 210.872 66.8853 212.262C65.7378 215.047 64.5208 217.8 63.2667 220.535C61.9827 223.258 60.6615 225.963 59.2256 228.615L59.1689 228.589C60.2437 225.771 61.4332 223.005 62.6601 220.257C63.9169 217.523 65.2105 214.805 66.5739 212.119C67.2503 210.774 67.9095 209.42 68.5205 208.045C69.1273 206.668 69.6722 205.262 70.259 203.876C71.474 201.122 72.7858 198.413 74.2336 195.766L74.2905 195.792Z" fill="#666666"/>
<path d="M68.3643 193.669C67.8076 196.635 67.1066 199.562 66.3019 202.463C65.878 203.907 65.4091 205.34 65.0062 206.79C64.6077 208.241 64.2604 209.706 63.9317 211.175C63.2853 214.117 62.5647 217.04 61.8049 219.952C61.0129 222.855 60.1816 225.749 59.2282 228.61L59.1676 228.594C59.737 225.632 60.4283 222.702 61.1592 219.783C61.9219 216.871 62.7241 213.97 63.6002 211.089C64.0329 209.647 64.4469 208.199 64.8098 206.739C65.1683 205.277 65.4608 203.798 65.7982 202.331C66.5163 199.408 67.3379 196.512 68.3038 193.654L68.3643 193.669Z" fill="#666666"/>
<path d="M59.63 189.923C38.3047 189.448 20.5686 206.411 20.0937 227.725C19.6186 249.05 36.5817 266.786 57.907 267.262C79.2212 267.736 96.9574 250.773 97.4325 229.448C97.9073 208.134 80.9443 190.398 59.63 189.923ZM58.0667 260.094C40.695 259.707 26.8737 245.267 27.261 227.885C27.6478 210.524 42.0986 196.703 59.4703 197.09C76.8309 197.477 90.6518 211.928 90.265 229.288C89.8778 246.671 75.4273 260.481 58.0667 260.094Z" fill="#B09000"/>
<path d="M63.4665 229.814C64.141 227.216 62.5823 224.564 59.9848 223.889C57.3874 223.214 54.7349 224.773 54.0603 227.371C53.3857 229.968 54.9445 232.621 57.5419 233.295C60.1394 233.97 62.7919 232.411 63.4665 229.814Z" fill="#FFB715"/>
<path d="M198.34 192.513C198.772 195.499 199.056 198.495 199.233 201.5C199.299 203.004 199.319 204.512 199.406 206.014C199.499 207.516 199.644 209.014 199.808 210.511C200.148 213.504 200.412 216.502 200.635 219.504C200.825 222.507 200.974 225.514 200.997 228.53L200.935 228.535C200.516 225.548 200.222 222.552 199.969 219.553C199.749 216.551 199.57 213.547 199.467 210.536C199.409 209.032 199.333 207.528 199.204 206.029C199.07 204.53 198.869 203.036 198.713 201.539C198.447 198.541 198.288 195.534 198.277 192.517L198.34 192.513Z" fill="#666666"/>
<path d="M192.125 193.516C193.07 196.381 193.869 199.284 194.565 202.212C194.892 203.682 195.173 205.163 195.52 206.627C195.872 208.09 196.275 209.54 196.697 210.986C197.551 213.874 198.331 216.781 199.072 219.698C199.781 222.623 200.45 225.559 200.997 228.525L200.936 228.54C200.004 225.671 199.195 222.772 198.425 219.862C197.687 216.944 196.989 214.017 196.365 211.07C196.047 209.598 195.711 208.131 195.323 206.677C194.931 205.224 194.474 203.788 194.06 202.34C193.278 199.433 192.599 196.501 192.064 193.531L192.125 193.516Z" fill="#666666"/>
<path d="M186.179 195.583C187.606 198.241 188.898 200.96 190.092 203.723C190.668 205.114 191.202 206.524 191.799 207.906C192.399 209.285 193.048 210.644 193.714 211.994C195.057 214.69 196.331 217.418 197.567 220.161C198.773 222.919 199.941 225.693 200.995 228.52L200.938 228.545C199.522 225.882 198.221 223.167 196.958 220.435C195.725 217.69 194.528 214.928 193.402 212.134C192.834 210.74 192.248 209.354 191.614 207.989C190.975 206.626 190.275 205.291 189.617 203.937C188.341 201.211 187.163 198.44 186.122 195.609L186.179 195.583Z" fill="#666666"/>
<path d="M180.682 198.652C182.549 201.021 184.293 203.475 185.949 205.989C186.758 207.258 187.529 208.554 188.356 209.811C189.187 211.065 190.062 212.291 190.952 213.505C192.743 215.927 194.471 218.391 196.164 220.879C197.831 223.385 199.463 225.915 200.992 228.515L200.94 228.55C199.083 226.173 197.331 223.725 195.612 221.254C193.921 218.765 192.263 216.253 190.669 213.697C189.867 212.423 189.05 211.159 188.188 209.925C187.323 208.694 186.401 207.501 185.518 206.282C183.788 203.818 182.147 201.295 180.63 198.687L180.682 198.652Z" fill="#666666"/>
<path d="M175.802 202.628C178.052 204.637 180.196 206.751 182.263 208.939C183.28 210.049 184.264 211.191 185.297 212.285C186.334 213.377 187.408 214.431 188.496 215.472C190.68 217.546 192.809 219.673 194.909 221.829C196.985 224.008 199.032 226.216 200.989 228.511L200.944 228.554C198.703 226.536 196.552 224.43 194.431 222.295C192.333 220.137 190.264 217.951 188.25 215.711C187.239 214.595 186.214 213.493 185.152 212.427C184.086 211.364 182.971 210.35 181.889 209.302C179.758 207.177 177.704 204.976 175.757 202.672L175.802 202.628Z" fill="#666666"/>
<path d="M171.685 207.392C174.25 208.98 176.729 210.689 179.144 212.485C180.339 213.401 181.506 214.354 182.713 215.253C183.923 216.148 185.165 217 186.417 217.836C188.928 219.499 191.394 221.224 193.836 222.983C196.26 224.768 198.659 226.586 200.985 228.507L200.948 228.558C198.39 226.959 195.906 225.259 193.446 223.524C191.005 221.764 188.589 219.97 186.216 218.114C185.027 217.19 183.826 216.283 182.595 215.418C181.361 214.557 180.086 213.751 178.839 212.907C176.372 211.184 173.966 209.374 171.649 207.442L171.685 207.392Z" fill="#666666"/>
<path d="M168.459 212.797C171.261 213.916 173.998 215.169 176.689 216.518C178.024 217.213 179.34 217.949 180.685 218.624C182.032 219.295 183.402 219.919 184.78 220.525C187.542 221.727 190.27 222.998 192.981 224.305C195.678 225.643 198.356 227.017 200.98 228.505L200.953 228.561C198.156 227.431 195.415 226.187 192.691 224.907C189.981 223.596 187.29 222.249 184.631 220.834C183.3 220.131 181.96 219.445 180.596 218.807C179.231 218.173 177.837 217.601 176.462 216.987C173.733 215.718 171.05 214.353 168.432 212.854L168.459 212.797Z" fill="#666666"/>
<path d="M166.221 218.681C169.175 219.296 172.088 220.054 174.972 220.916C176.408 221.368 177.831 221.865 179.273 222.296C180.716 222.723 182.174 223.099 183.636 223.457C186.565 224.161 189.472 224.939 192.369 225.756C195.257 226.605 198.133 227.493 200.975 228.502L200.958 228.562C198.008 227.935 195.092 227.186 192.187 226.398C189.292 225.578 186.407 224.719 183.543 223.786C182.11 223.326 180.671 222.883 179.218 222.492C177.763 222.105 176.29 221.783 174.83 221.417C171.922 220.642 169.043 219.763 166.204 218.741L166.221 218.681Z" fill="#666666"/>
<path d="M165.038 224.864C168.054 224.957 171.054 225.198 174.044 225.545C175.536 225.742 177.024 225.984 178.519 226.159C180.014 226.328 181.515 226.445 183.018 226.543C186.024 226.728 189.023 226.99 192.017 227.291C195.008 227.626 197.995 228.001 200.97 228.501L200.963 228.564C197.949 228.458 194.947 228.227 191.95 227.955C188.956 227.651 185.966 227.306 182.983 226.884C181.492 226.679 179.998 226.493 178.499 226.36C176.999 226.231 175.493 226.171 173.991 226.064C170.992 225.805 168.004 225.44 165.032 224.927L165.038 224.864Z" fill="#666666"/>
<path d="M164.946 231.159C167.932 230.727 170.929 230.443 173.934 230.266C175.437 230.2 176.945 230.18 178.448 230.092C179.949 230 181.448 229.855 182.944 229.69C185.937 229.35 188.935 229.087 191.937 228.864C194.941 228.674 197.947 228.525 200.963 228.501L200.968 228.564C197.981 228.983 194.985 229.277 191.986 229.53C188.984 229.75 185.98 229.929 182.97 230.032C181.465 230.089 179.962 230.166 178.462 230.295C176.963 230.428 175.469 230.63 173.972 230.785C170.974 231.051 167.968 231.211 164.95 231.221L164.946 231.159Z" fill="#666666"/>
<path d="M165.95 237.374C168.816 236.43 171.718 235.63 174.646 234.934C176.116 234.608 177.597 234.327 179.061 233.979C180.524 233.627 181.975 233.224 183.42 232.802C186.308 231.948 189.215 231.168 192.132 230.427C195.057 229.718 197.993 229.049 200.959 228.502L200.974 228.563C198.106 229.495 195.206 230.304 192.296 231.074C189.379 231.812 186.451 232.51 183.504 233.134C182.032 233.452 180.565 233.788 179.111 234.176C177.658 234.568 176.222 235.026 174.774 235.439C171.867 236.222 168.935 236.9 165.966 237.435L165.95 237.374Z" fill="#666666"/>
<path d="M168.017 243.32C170.675 241.893 173.394 240.601 176.157 239.407C177.548 238.831 178.958 238.297 180.34 237.7C181.719 237.099 183.077 236.451 184.428 235.784C187.124 234.442 189.851 233.168 192.595 231.932C195.353 230.726 198.127 229.558 200.954 228.504L200.979 228.561C198.316 229.977 195.601 231.278 192.869 232.541C190.124 233.774 187.362 234.971 184.569 236.097C183.174 236.665 181.788 237.251 180.423 237.885C179.06 238.524 177.725 239.224 176.371 239.882C173.645 241.158 170.874 242.336 168.043 243.377L168.017 243.32Z" fill="#666666"/>
<path d="M171.085 248.817C173.455 246.95 175.908 245.206 178.422 243.55C179.691 242.741 180.987 241.97 182.244 241.143C183.499 240.312 184.724 239.437 185.938 238.546C188.36 236.755 190.825 235.028 193.312 233.334C195.819 231.668 198.348 230.035 200.948 228.507L200.983 228.558C198.607 230.415 196.159 232.168 193.688 233.886C191.198 235.577 188.686 237.235 186.131 238.829C184.856 239.631 183.592 240.449 182.358 241.31C181.127 242.176 179.934 243.097 178.715 243.981C176.251 245.71 173.728 247.351 171.12 248.869L171.085 248.817Z" fill="#666666"/>
<path d="M175.062 253.697C177.072 251.447 179.185 249.304 181.373 247.236C182.483 246.219 183.625 245.235 184.719 244.202C185.81 243.166 186.865 242.091 187.906 241.003C189.98 238.819 192.107 236.69 194.263 234.59C196.442 232.514 198.65 230.467 200.945 228.51L200.988 228.555C198.97 230.796 196.864 232.947 194.729 235.068C192.571 237.166 190.385 239.235 188.145 241.249C187.029 242.26 185.926 243.285 184.861 244.347C183.798 245.413 182.783 246.528 181.736 247.61C179.611 249.741 177.41 251.795 175.106 253.742L175.062 253.697Z" fill="#666666"/>
<path d="M179.825 257.814C181.413 255.249 183.122 252.771 184.918 250.355C185.834 249.16 186.788 247.993 187.686 246.785C188.581 245.576 189.433 244.335 190.269 243.082C191.933 240.571 193.658 238.105 195.416 235.663C197.202 233.239 199.02 230.84 200.941 228.515L200.991 228.551C199.393 231.109 197.692 233.593 195.958 236.053C194.197 238.493 192.403 240.91 190.547 243.283C189.624 244.472 188.716 245.673 187.851 246.904C186.99 248.138 186.184 249.413 185.341 250.66C183.617 253.127 181.807 255.532 179.876 257.85L179.825 257.814Z" fill="#666666"/>
<path d="M185.231 261.04C186.349 258.238 187.602 255.501 188.951 252.81C189.646 251.474 190.382 250.159 191.058 248.814C191.729 247.467 192.352 246.097 192.958 244.719C194.16 241.957 195.431 239.228 196.739 236.518C198.076 233.821 199.45 231.143 200.938 228.519L200.994 228.546C199.864 231.343 198.62 234.084 197.34 236.808C196.029 239.517 194.682 242.209 193.267 244.867C192.564 246.199 191.878 247.539 191.24 248.902C190.607 250.267 190.034 251.662 189.42 253.036C188.151 255.766 186.786 258.449 185.287 261.067L185.231 261.04Z" fill="#666666"/>
<path d="M191.115 263.279C191.73 260.325 192.489 257.412 193.35 254.528C193.802 253.092 194.299 251.669 194.731 250.227C195.158 248.783 195.534 247.326 195.891 245.863C196.595 242.935 197.373 240.027 198.19 237.131C199.039 234.243 199.927 231.366 200.937 228.524L200.997 228.541C200.37 231.491 199.621 234.407 198.833 237.312C198.013 240.208 197.154 243.093 196.221 245.957C195.76 247.39 195.318 248.829 194.926 250.282C194.539 251.736 194.217 253.209 193.851 254.669C193.076 257.578 192.198 260.457 191.176 263.296L191.115 263.279Z" fill="#666666"/>
<path d="M197.298 264.461C197.39 261.446 197.631 258.445 197.979 255.455C198.175 253.963 198.417 252.475 198.592 250.98C198.762 249.485 198.879 247.984 198.977 246.481C199.162 243.475 199.423 240.477 199.725 237.482C200.059 234.491 200.434 231.504 200.935 228.53L200.997 228.536C200.891 231.55 200.66 234.552 200.389 237.549C200.084 240.544 199.739 243.534 199.318 246.516C199.113 248.008 198.927 249.501 198.794 251C198.665 252.5 198.604 254.006 198.497 255.508C198.238 258.507 197.874 261.495 197.36 264.468L197.298 264.461Z" fill="#666666"/>
<path d="M203.593 264.552C203.16 261.567 202.877 258.57 202.7 255.565C202.634 254.061 202.614 252.554 202.526 251.051C202.434 249.549 202.289 248.051 202.124 246.554C201.784 243.561 201.521 240.563 201.298 237.562C201.108 234.558 200.958 231.551 200.935 228.535L200.997 228.53C201.417 231.517 201.71 234.513 201.963 237.513C202.183 240.514 202.363 243.519 202.466 246.529C202.523 248.034 202.599 249.537 202.728 251.036C202.862 252.535 203.064 254.029 203.219 255.526C203.485 258.525 203.645 261.531 203.655 264.548L203.593 264.552Z" fill="#666666"/>
<path d="M209.807 263.549C208.863 260.684 208.063 257.782 207.367 254.853C207.041 253.384 206.76 251.902 206.412 250.438C206.06 248.975 205.657 247.525 205.236 246.079C204.381 243.191 203.601 240.284 202.86 237.367C202.151 234.442 201.482 231.506 200.936 228.54L200.996 228.525C201.928 231.393 202.737 234.293 203.507 237.203C204.245 240.121 204.943 243.049 205.568 245.995C205.885 247.467 206.222 248.934 206.609 250.388C207.001 251.841 207.459 253.278 207.872 254.725C208.655 257.632 209.334 260.564 209.868 263.534L209.807 263.549Z" fill="#666666"/>
<path d="M215.754 261.482C214.326 258.824 213.035 256.105 211.841 253.342C211.264 251.951 210.73 250.541 210.134 249.159C209.533 247.78 208.884 246.421 208.218 245.071C206.875 242.375 205.602 239.648 204.366 236.904C203.16 234.146 201.992 231.372 200.938 228.545L200.995 228.52C202.411 231.183 203.711 233.898 204.975 236.63C206.208 239.375 207.404 242.137 208.531 244.931C209.099 246.325 209.685 247.711 210.319 249.076C210.957 250.439 211.658 251.774 212.316 253.128C213.592 255.854 214.769 258.625 215.811 261.456L215.754 261.482Z" fill="#666666"/>
<path d="M221.251 258.413C219.383 256.044 217.639 253.59 215.984 251.077C215.174 249.807 214.403 248.512 213.576 247.254C212.745 246 211.87 244.775 210.98 243.561C209.189 241.139 207.462 238.674 205.768 236.186C204.101 233.68 202.469 231.151 200.94 228.55L200.992 228.515C202.849 230.892 204.601 233.34 206.32 235.811C208.011 238.3 209.669 240.812 211.263 243.368C212.065 244.642 212.883 245.906 213.744 247.14C214.609 248.371 215.531 249.564 216.414 250.784C218.144 253.247 219.785 255.771 221.302 258.378L221.251 258.413Z" fill="#666666"/>
<path d="M226.131 254.437C223.88 252.428 221.737 250.314 219.67 248.126C218.653 247.017 217.669 245.874 216.635 244.78C215.599 243.689 214.525 242.634 213.437 241.593C211.253 239.519 209.124 237.392 207.024 235.236C204.947 233.057 202.9 230.85 200.943 228.554L200.988 228.511C203.23 230.529 205.381 232.636 207.502 234.771C209.6 236.928 211.669 239.115 213.683 241.354C214.694 242.47 215.718 243.573 216.781 244.639C217.847 245.701 218.962 246.716 220.043 247.763C222.174 249.889 224.229 252.089 226.176 254.393L226.131 254.437Z" fill="#666666"/>
<path d="M230.247 249.674C227.681 248.086 225.203 246.376 222.788 244.581C221.593 243.664 220.426 242.711 219.218 241.812C218.008 240.917 216.767 240.065 215.515 239.229C213.004 237.566 210.538 235.841 208.095 234.082C205.672 232.297 203.273 230.479 200.947 228.558L200.984 228.507C203.542 230.106 206.026 231.807 208.486 233.541C210.926 235.301 213.343 237.095 215.715 238.951C216.905 239.875 218.106 240.783 219.337 241.647C220.571 242.509 221.845 243.314 223.092 244.158C225.56 245.881 227.965 247.691 230.283 249.623L230.247 249.674Z" fill="#666666"/>
<path d="M233.473 244.268C230.671 243.149 227.934 241.896 225.243 240.547C223.908 239.853 222.592 239.116 221.247 238.441C219.9 237.77 218.53 237.146 217.152 236.54C214.39 235.338 211.661 234.067 208.951 232.76C206.254 231.422 203.576 230.048 200.952 228.561L200.979 228.504C203.776 229.634 206.517 230.878 209.241 232.159C211.951 233.469 214.642 234.816 217.301 236.232C218.632 236.934 219.973 237.62 221.335 238.258C222.701 238.892 224.095 239.464 225.47 240.078C228.199 241.347 230.882 242.712 233.5 244.211L233.473 244.268Z" fill="#666666"/>
<path d="M235.712 238.384C232.758 237.769 229.845 237.011 226.961 236.149C225.525 235.697 224.102 235.2 222.66 234.769C221.217 234.342 219.759 233.966 218.297 233.608C215.368 232.904 212.461 232.126 209.564 231.309C206.676 230.46 203.8 229.572 200.958 228.563L200.975 228.503C203.925 229.13 206.841 229.879 209.746 230.667C212.641 231.487 215.526 232.346 218.39 233.278C219.823 233.739 221.262 234.182 222.715 234.573C224.17 234.961 225.643 235.282 227.103 235.648C230.011 236.424 232.891 237.302 235.729 238.324L235.712 238.384Z" fill="#666666"/>
<path d="M236.895 232.201C233.879 232.108 230.879 231.867 227.889 231.519C226.396 231.323 224.908 231.081 223.414 230.907C221.918 230.737 220.417 230.62 218.915 230.522C215.909 230.336 212.91 230.075 209.916 229.774C206.924 229.439 203.938 229.064 200.963 228.564L200.969 228.502C203.984 228.607 206.985 228.838 209.983 229.11C212.977 229.414 215.967 229.759 218.949 230.18C220.441 230.386 221.935 230.572 223.434 230.705C224.933 230.833 226.44 230.894 227.941 231.001C230.94 231.26 233.928 231.625 236.901 232.138L236.895 232.201Z" fill="#666666"/>
<path d="M236.986 225.906C234 226.339 231.003 226.622 227.998 226.799C226.494 226.865 224.987 226.885 223.485 226.973C221.983 227.065 220.484 227.21 218.988 227.375C215.995 227.715 212.997 227.978 209.995 228.201C206.991 228.391 203.985 228.54 200.969 228.564L200.964 228.501C203.951 228.082 206.947 227.788 209.946 227.535C212.948 227.315 215.952 227.136 218.962 227.033C220.467 226.976 221.97 226.899 223.47 226.77C224.969 226.637 226.463 226.435 227.96 226.28C230.958 226.014 233.964 225.854 236.981 225.844L236.986 225.906Z" fill="#666666"/>
<path d="M235.983 219.691C233.118 220.635 230.215 221.435 227.287 222.131C225.817 222.457 224.336 222.739 222.872 223.086C221.409 223.438 219.959 223.841 218.513 224.263C215.625 225.117 212.718 225.897 209.801 226.638C206.876 227.347 203.94 228.016 200.974 228.563L200.959 228.502C203.828 227.57 206.727 226.761 209.637 225.991C212.555 225.253 215.482 224.555 218.429 223.93C219.901 223.613 221.368 223.277 222.822 222.889C224.275 222.497 225.712 222.039 227.159 221.626C230.065 220.844 232.998 220.164 235.968 219.63L235.983 219.691Z" fill="#666666"/>
<path d="M233.915 213.745C231.257 215.172 228.538 216.464 225.775 217.657C224.384 218.234 222.974 218.768 221.593 219.365C220.213 219.965 218.854 220.614 217.504 221.28C214.808 222.623 212.081 223.897 209.337 225.133C206.579 226.338 203.805 227.507 200.978 228.561L200.953 228.504C203.616 227.088 206.331 225.787 209.063 224.524C211.808 223.29 214.57 222.094 217.364 220.968C218.758 220.399 220.144 219.814 221.509 219.179C222.872 218.541 224.207 217.841 225.561 217.183C228.287 215.907 231.058 214.729 233.889 213.688L233.915 213.745Z" fill="#666666"/>
<path d="M230.847 208.248C228.477 210.116 226.023 211.86 223.51 213.515C222.24 214.325 220.945 215.095 219.687 215.923C218.433 216.754 217.208 217.628 215.994 218.519C213.572 220.31 211.107 222.037 208.619 223.731C206.113 225.398 203.584 227.03 200.983 228.559L200.948 228.507C203.325 226.65 205.773 224.898 208.244 223.179C210.733 221.488 213.246 219.83 215.801 218.236C217.075 217.434 218.339 216.616 219.573 215.755C220.805 214.89 221.998 213.968 223.217 213.085C225.68 211.355 228.204 209.714 230.811 208.196L230.847 208.248Z" fill="#666666"/>
<path d="M226.871 203.368C224.861 205.618 222.748 207.762 220.56 209.829C219.45 210.846 218.308 211.83 217.213 212.863C216.122 213.9 215.068 214.974 214.027 216.062C211.953 218.246 209.825 220.375 207.67 222.475C205.491 224.551 203.283 226.598 200.988 228.555L200.944 228.51C202.963 226.269 205.069 224.118 207.204 221.997C209.362 219.899 211.548 217.83 213.788 215.816C214.904 214.805 216.006 213.78 217.072 212.718C218.134 211.652 219.149 210.537 220.196 209.456C222.322 207.324 224.522 205.27 226.827 203.323L226.871 203.368Z" fill="#666666"/>
<path d="M222.107 199.252C220.519 201.817 218.81 204.295 217.014 206.71C216.098 207.905 215.144 209.073 214.246 210.28C213.351 211.49 212.499 212.731 211.663 213.983C209.999 216.494 208.274 218.961 206.516 221.403C204.73 223.826 202.912 226.225 200.991 228.551L200.94 228.515C202.539 225.957 204.24 223.473 205.974 221.013C207.735 218.572 209.529 216.155 211.385 213.783C212.308 212.594 213.216 211.393 214.081 210.161C214.942 208.927 215.748 207.653 216.591 206.406C218.315 203.938 220.125 201.533 222.056 199.215L222.107 199.252Z" fill="#666666"/>
<path d="M216.702 196.025C215.584 198.827 214.331 201.564 212.982 204.255C212.287 205.591 211.55 206.906 210.875 208.251C210.204 209.598 209.581 210.968 208.975 212.347C207.773 215.108 206.502 217.837 205.194 220.547C203.857 223.244 202.483 225.922 200.995 228.546L200.939 228.519C202.069 225.723 203.312 222.981 204.593 220.257C205.903 217.548 207.25 214.856 208.666 212.198C209.369 210.866 210.054 209.526 210.692 208.163C211.326 206.798 211.898 205.403 212.513 204.029C213.781 201.299 215.146 198.616 216.646 195.998L216.702 196.025Z" fill="#666666"/>
<path d="M210.818 193.787C210.203 196.74 209.445 199.654 208.583 202.538C208.131 203.974 207.634 205.397 207.203 206.839C206.776 208.282 206.4 209.739 206.042 211.202C205.338 214.13 204.56 217.038 203.743 219.935C202.894 222.822 202.006 225.699 200.997 228.541L200.937 228.524C201.564 225.574 202.313 222.658 203.101 219.753C203.921 216.858 204.78 213.973 205.712 211.109C206.173 209.675 206.616 208.237 207.007 206.783C207.394 205.329 207.716 203.856 208.082 202.396C208.857 199.488 209.736 196.608 210.758 193.77L210.818 193.787Z" fill="#666666"/>
<path d="M204.635 192.604C204.542 195.619 204.301 198.62 203.953 201.61C203.757 203.103 203.515 204.59 203.341 206.085C203.171 207.581 203.053 209.081 202.955 210.584C202.77 213.59 202.509 216.589 202.208 219.583C201.873 222.574 201.498 225.561 200.998 228.536L200.935 228.529C201.041 225.515 201.272 222.513 201.544 219.516C201.848 216.522 202.193 213.532 202.614 210.549C202.82 209.058 203.005 207.564 203.139 206.065C203.267 204.565 203.328 203.059 203.435 201.557C203.694 198.559 204.059 195.571 204.572 192.598L204.635 192.604Z" fill="#666666"/>
<path d="M209.489 227.395C210.149 232.341 206.675 236.884 201.729 237.544C196.784 238.203 192.241 234.729 191.581 229.784C190.921 224.839 194.395 220.295 199.341 219.636C204.286 218.976 208.829 222.45 209.489 227.395Z" fill="#F9F9F9"/>
<path d="M205.695 227.901C206.075 230.751 204.073 233.37 201.223 233.75C198.373 234.13 195.755 232.128 195.375 229.278C194.995 226.428 196.997 223.81 199.847 223.43C202.696 223.05 205.315 225.052 205.695 227.901Z" fill="#6C6C6C"/>
<path d="M195.427 190.249C174.284 193.07 159.376 212.566 162.195 233.698C165.015 254.841 184.511 269.748 205.655 266.928C226.787 264.11 241.694 244.614 238.874 223.47C236.055 202.338 216.559 187.431 195.427 190.249ZM204.707 259.822C187.483 262.119 171.6 249.985 169.301 232.75C167.005 215.538 179.151 199.653 196.375 197.356C213.587 195.06 229.472 207.206 231.768 224.418C234.067 241.653 221.919 257.526 204.707 259.822Z" fill="#B09000"/>
<path d="M123.365 219.446C123.131 219.441 122.896 219.398 122.669 219.317C121.97 219.066 121.443 218.482 121.268 217.759L114.782 191.104L84.8093 197.258C83.6189 197.511 82.446 196.735 82.2008 195.539C81.9555 194.344 82.7255 193.176 83.9206 192.931L113.736 186.808L110.429 173.215C110.14 172.031 110.868 170.835 112.053 170.546C113.238 170.26 114.434 170.986 114.722 172.171L118.067 185.918L178.296 173.552C179.31 173.343 180.33 173.866 180.754 174.809C181.179 175.751 180.893 176.862 180.066 177.483L124.741 219.004C124.339 219.306 123.853 219.457 123.365 219.446ZM119.113 190.214L124.769 213.458L169.536 179.861L119.113 190.214Z" fill="#6C6C6C"/>
<path d="M183.872 191.435C182.662 191.596 181.551 190.747 181.39 189.537L177.934 163.628C177.772 162.418 178.622 161.307 179.831 161.146C181.041 160.984 182.152 161.834 182.313 163.043L185.769 188.953C185.931 190.163 185.081 191.274 183.872 191.435Z" fill="#FFB715"/>
<path d="M159.099 228.394C158.914 228.419 158.724 228.42 158.53 228.395C157.319 228.243 156.461 227.138 156.613 225.929C160.009 198.869 179.3 183.056 206.964 184.67C208.182 184.741 209.112 185.786 209.041 187.004C208.97 188.222 207.933 189.149 206.707 189.081C181.59 187.619 164.076 201.949 160.997 226.478C160.869 227.495 160.069 228.263 159.099 228.394Z" fill="#6C6C6C"/>
<path d="M108.719 173.393C108.23 173.382 107.789 173.045 107.67 172.546C107.527 171.954 107.892 171.357 108.486 171.215L115.366 169.561C115.955 169.417 116.555 169.782 116.698 170.377C116.841 170.969 116.476 171.566 115.882 171.709L109.002 173.363C108.907 173.385 108.812 173.395 108.719 173.393Z" fill="#FFB715"/>
<path d="M183.598 162.635L183.57 162.638L176.535 163.395C175.928 163.46 175.384 163.021 175.319 162.414C175.253 161.807 175.666 161.253 176.298 161.198L183.334 160.441C183.94 160.376 184.485 160.815 184.55 161.422C184.614 162.019 184.19 162.556 183.598 162.635Z" fill="#FFB715"/>
<path d="M115.261 234.781L117.797 236.34L127.691 218.447L125.154 216.888L115.261 234.781Z" fill="#999999"/>
<path d="M121.314 234.208L111.973 234C110.919 233.977 110.045 234.812 110.022 235.866C109.998 236.92 110.834 237.794 111.888 237.817L121.229 238.025C122.283 238.049 123.157 237.213 123.18 236.159C123.204 235.105 122.368 234.232 121.314 234.208Z" fill="#B09000"/>
<path d="M99.9238 223.832C98.9451 223.81 98.0651 223.134 97.8262 222.136C92.0663 198.096 73.078 185.779 48.2767 190C47.0685 190.204 45.9325 189.395 45.7279 188.192C45.5232 186.99 46.3325 185.849 47.5354 185.644C74.8501 180.994 95.7684 194.586 102.123 221.108C102.407 222.293 101.676 223.487 100.489 223.771C100.3 223.817 100.11 223.835 99.9238 223.832Z" fill="#FFB715"/>
<path fill-rule="evenodd" clip-rule="evenodd" d="M124.44 207.397L124.633 207.494C129.733 210.064 132.466 212.627 133.135 215.961C133.793 219.235 132.409 223.078 129.865 228.076L129.72 228.36L59.502 236.552L59.4085 236.535C56.5942 236.027 54.648 235.077 53.4041 233.808C52.1521 232.532 51.6675 230.991 51.666 229.417C51.663 226.316 53.5295 223.014 55.1987 220.939L55.3371 220.767L124.44 207.397ZM56.0298 221.811C54.4665 223.808 52.8804 226.765 52.883 229.416C52.8843 230.756 53.2904 231.998 54.295 233.022C55.2959 234.043 56.9449 234.902 59.5431 235.384L128.912 227.291C131.369 222.421 132.502 218.98 131.939 216.177C131.385 213.414 129.134 211.1 124.254 208.611L56.0298 221.811Z" fill="#B09000"/>
<path d="M137.527 217.924C137.383 224.385 132.029 229.505 125.569 229.361C119.109 229.217 113.988 223.863 114.132 217.403C114.276 210.942 119.63 205.822 126.09 205.966C132.551 206.11 137.671 211.464 137.527 217.924Z" fill="#666666"/>
<path d="M67.5063 230.863C68.7604 226.034 65.8626 221.103 61.0338 219.849C56.205 218.595 51.2738 221.493 50.0198 226.321C48.7657 231.15 51.6635 236.081 56.4923 237.335C61.3211 238.59 66.2522 235.692 67.5063 230.863Z" fill="#F9F9F9"/>
<path d="M64.1248 229.985C64.8939 227.023 63.1167 223.999 60.1552 223.23C57.1938 222.461 54.1695 224.238 53.4004 227.199C52.6313 230.161 54.4085 233.185 57.37 233.954C60.3314 234.723 63.3556 232.946 64.1248 229.985Z" fill="#FFB715"/>
<path d="M137.575 202.423C137.96 201.727 137.729 200.852 137.052 200.436C136.33 199.992 135.382 200.241 134.972 200.983L126.519 216.271C126.135 216.966 126.365 217.841 127.042 218.257C127.764 218.702 128.712 218.452 129.122 217.71L137.575 202.423Z" fill="#999999"/>
<path d="M132.209 201.753L141.55 201.961C142.604 201.984 143.478 201.149 143.502 200.095C143.525 199.041 142.69 198.167 141.635 198.144L132.294 197.935C131.24 197.912 130.367 198.747 130.343 199.801C130.32 200.856 131.155 201.729 132.209 201.753Z" fill="#B09000"/>
<path fill-rule="evenodd" clip-rule="evenodd" d="M186.296 159.68L186.959 162.804L190.582 162.636L189.96 159.499L186.296 159.68ZM191.648 159.415L192.271 162.558L196.048 162.384L195.568 159.221L191.648 159.415ZM192.599 164.217L196.301 164.046L196.801 167.341L193.262 167.559L192.599 164.217ZM197.98 163.968L198.477 167.238L202.025 167.021L201.747 163.794L197.98 163.968ZM203.418 163.717L203.694 166.918L206.683 166.735L206.486 163.575L203.418 163.717ZM203.838 168.584L206.786 168.403L206.975 171.449L204.1 171.621L203.838 168.584ZM208.455 168.301L208.644 171.349L211.743 171.163L211.64 168.105L208.455 168.301ZM213.31 168.003L213.412 171.063L215.672 170.928L215.741 167.854L213.31 168.003ZM211.799 172.834L208.748 173.017L208.954 176.339L211.909 176.083L211.799 172.834ZM213.576 175.918L213.469 172.734L215.635 172.605L215.619 173.331C215.591 174.601 214.73 175.664 213.576 175.918ZM213.253 166.331L213.15 163.267L215.846 163.142L215.778 166.176L213.253 166.331ZM211.48 163.344L211.584 166.434L208.351 166.632L208.157 163.498L211.48 163.344ZM213.094 161.596L215.883 161.467L215.956 158.212L212.985 158.359L213.094 161.596ZM211.315 158.442L211.424 161.673L208.053 161.829L207.853 158.613L211.315 158.442ZM204.244 173.287L207.079 173.117L207.288 176.483L204.54 176.721L204.244 173.287ZM202.998 158.854L206.183 158.696L206.383 161.906L203.274 162.05L202.998 158.854ZM202.169 168.687L198.729 168.898L199.188 171.915L202.431 171.721L202.169 168.687ZM202.574 173.387L199.44 173.575L199.978 177.116L202.875 176.865L202.574 173.387ZM201.327 158.936L201.603 162.127L197.727 162.306L197.246 159.138L201.327 158.936ZM193.59 169.213L197.054 169.001L197.512 172.016L194.185 172.215L193.59 169.213ZM194.513 173.87L197.764 173.675L198.309 177.261L195.238 177.527L194.513 173.87ZM190.911 164.295L187.311 164.461L188.037 167.879L191.578 167.662L190.911 164.295ZM191.906 169.317L188.388 169.533L189.023 172.524L192.501 172.316L191.906 169.317ZM192.829 173.971L189.374 174.178L189.692 175.676C189.971 176.989 191.125 177.883 192.399 177.773L193.562 177.672L192.829 173.971ZM185.945 158.023L185.352 155.231C185.209 154.558 184.54 154.135 183.871 154.294C183.224 154.448 182.818 155.089 182.956 155.74L187.309 176.243C187.853 178.806 190.106 180.552 192.593 180.336L213.454 178.529C216.011 178.308 218 176.087 218.06 173.386L218.463 155.318C218.478 154.644 217.943 154.085 217.269 154.07C216.595 154.055 216.036 154.589 216.021 155.263L215.993 156.537L185.945 158.023Z" fill="#6C6C6C"/>
<path fill-rule="evenodd" clip-rule="evenodd" d="M200.588 229.666C199.227 230.184 197.704 229.501 197.185 228.141L184.236 194.147C183.718 192.787 184.401 191.263 185.761 190.745C187.122 190.227 188.645 190.91 189.163 192.27L202.113 226.264C202.631 227.624 201.948 229.148 200.588 229.666Z" fill="#FFB715"/>
<path fill-rule="evenodd" clip-rule="evenodd" d="M59.1551 229.013C57.9864 228.145 57.743 226.494 58.6114 225.325L80.3077 196.127C81.1761 194.958 82.8275 194.715 83.9962 195.583C85.1649 196.452 85.4083 198.103 84.5399 199.272L62.8436 228.47C61.9752 229.638 60.3238 229.882 59.1551 229.013Z" fill="#6C6C6C"/>
<path d="M275.048 270.451H271.425V211.014C271.425 197.057 260.069 185.709 246.112 185.709C232.155 185.709 220.8 197.065 220.8 211.014V270.451H217.177V211.014C217.177 195.065 230.155 182.086 246.112 182.086C262.069 182.086 275.048 195.065 275.048 211.014V270.451Z" fill="#B09000"/>
<path opacity="0.2" d="M275.048 270.451H271.425V211.014C271.425 197.057 260.069 185.709 246.112 185.709C232.155 185.709 220.8 197.065 220.8 211.014V270.451H217.177V211.014C217.177 195.065 230.155 182.086 246.112 182.086C262.069 182.086 275.048 195.065 275.048 211.014V270.451Z" fill="#F9F9F9"/>
<path d="M102.94 74.2952C103.598 73.9167 104.343 73.7159 105.102 73.7122C105.861 73.7086 106.608 73.9024 107.269 74.2745C107.931 74.6466 108.484 75.1844 108.875 75.8349C109.266 76.4854 109.481 77.2264 109.499 77.9851C109.517 78.7438 109.338 79.4942 108.978 80.1626C108.619 80.831 108.091 81.3944 107.448 81.7976C106.806 82.2008 106.069 82.4299 105.311 82.4624C104.552 82.4949 103.799 82.3297 103.124 81.983C101.412 86.6426 95.8018 86.6426 94.4927 84.6252C92.2842 86.1293 89.1884 86.9808 86.5582 86.5113C83.9279 86.0417 82.4676 85.3494 80.5257 83.515C79.8333 82.8157 79.2462 82.0195 78.7828 81.1513C77.3225 81.7681 74.2704 81.8318 72.9334 80.9842C72.5527 80.708 72.2302 80.3596 71.9842 79.9588C71.7381 79.5579 71.5735 79.1126 71.4996 78.6481C71.4257 78.1836 71.444 77.7092 71.5534 77.2518C71.6629 76.7944 71.8614 76.363 72.1376 75.9824C73.4826 74.1798 75.9855 74.4822 77.2588 75.1109C76.9962 73.5789 77.3822 71.9992 78.7112 71.2034C79.3297 70.7997 80.0585 70.5985 80.7965 70.6277C81.5345 70.6569 82.2451 70.9151 82.8297 71.3665C83.8921 68.6965 86.9282 66.2891 89.7893 66.5596C91.2286 66.7171 92.5817 67.3239 93.6567 68.2939C94.7317 69.2639 95.4739 70.5478 95.7779 71.9634C96.8643 70.7458 98.3366 69.938 99.8765 70.4791C101.416 71.0203 102.861 72.6637 102.94 74.2952Z" fill="#B09000"/>
<path d="M158.497 40.4805C159.155 40.1021 159.9 39.9012 160.659 39.8975C161.418 39.8939 162.165 40.0877 162.826 40.4598C163.487 40.8319 164.041 41.3697 164.432 42.0202C164.823 42.6707 165.038 43.4117 165.056 44.1704C165.074 44.9291 164.894 45.6795 164.535 46.3479C164.175 47.0163 163.648 47.5797 163.005 47.9829C162.362 48.3861 161.625 48.6152 160.867 48.6477C160.109 48.6802 159.355 48.515 158.68 48.1683C156.969 52.8279 151.358 52.8279 150.049 50.8105C147.841 52.3146 144.745 53.1661 142.115 52.6966C139.485 52.227 138.024 51.5347 136.082 49.7003C135.39 49.001 134.803 48.2048 134.339 47.3366C132.879 47.9534 129.827 48.0171 128.49 47.1695C128.109 46.8933 127.787 46.5449 127.541 46.1441C127.295 45.7432 127.13 45.2979 127.056 44.8334C126.982 44.3689 127.001 43.8945 127.11 43.4371C127.22 42.9797 127.418 42.5483 127.694 42.1677C129.039 40.3651 131.542 40.6675 132.815 41.2962C132.553 39.7642 132.939 38.1845 134.268 37.3887C134.886 36.985 135.615 36.7838 136.353 36.813C137.091 36.8422 137.802 37.1004 138.386 37.5518C139.449 34.8818 142.485 32.4744 145.346 32.7449C146.785 32.9024 148.138 33.5092 149.213 34.4792C150.288 35.4492 151.031 36.7331 151.335 38.1487C152.421 36.9311 153.893 36.1233 155.433 36.6644C156.973 37.2056 158.418 38.849 158.497 40.4805Z" fill="#B09000"/>
<path d="M305.09 267.143C305.09 267.209 236.513 267.257 151.923 267.257C67.3326 267.257 -1.24512 267.209 -1.24512 267.143C-1.24512 267.077 67.315 267.028 151.923 267.028C236.53 267.028 305.09 267.081 305.09 267.143Z" fill="#263238"/>
</g>
<defs>
<clipPath id="clip0_515_1711">
<rect width="292.068" height="292.068" fill="white"/>
</clipPath>
</defs>
</svg>
