<svg width="198" height="144" viewBox="0 0 198 144" fill="none" xmlns="http://www.w3.org/2000/svg">
<mask id="mask0_6969_9393" style="mask-type:alpha" maskUnits="userSpaceOnUse" x="0" y="0" width="198" height="144">
<rect width="198" height="143.478" rx="54.6584" fill="#FFB21D"/>
</mask>
<g mask="url(#mask0_6969_9393)">
<path fill-rule="evenodd" clip-rule="evenodd" d="M21.6926 26.8193C21.701 26.8193 21.7094 26.8194 21.7178 26.8197L82.5526 26.6432C83.3527 26.6409 84.0026 27.2889 84.0026 28.0891V64.0845C84.0026 64.8698 83.3758 65.5115 82.5908 65.53L75.6523 65.6934L75.6444 66.3999L75.6946 66.3996L75.3503 103.433L75.4483 103.45C75.9595 103.542 76.3186 103.858 76.5014 104.252L77.4017 104.178L77.3241 72.4828C77.3229 71.9908 77.5664 71.5591 77.9365 71.2976L77.3202 70.9181L119.402 67.4841L197.064 72.0025L196.719 72.6878C196.929 72.9398 197.055 73.265 197.053 73.6222L196.53 148.752C196.53 148.794 196.528 148.835 196.524 148.877C196.466 149.494 196.018 150.013 195.403 150.152L181.447 153.307C181.44 153.309 181.432 153.311 181.425 153.313L176.188 154.497L176.179 154.499L176.166 154.502L153.655 159.591L153.362 159.658L153.359 159.658C153.356 159.658 153.354 159.658 153.351 159.658C153.346 159.657 153.342 159.654 153.338 159.651C153.334 159.646 153.331 159.64 153.331 159.633L153.331 159.627C153.239 159.626 153.147 159.617 153.056 159.599L78.6633 144.888C77.9874 144.754 77.4996 144.162 77.4979 143.473L77.4931 141.486L75.6923 141.724C75.7157 141.92 75.5764 142.099 75.3796 142.125L30.3555 147.933C30.0671 147.97 29.7895 147.92 29.5477 147.804L29.0852 147.865C29.0223 147.873 28.9591 147.877 28.896 147.877C28.8695 147.889 28.8411 147.897 28.8113 147.901C28.7619 147.907 28.7118 147.902 28.6649 147.885L28.4055 147.791L18.1748 144.099L14.0266 142.785C13.8618 142.733 13.7 142.604 13.5681 142.437L7.64718 140.3L7.64659 140.299C7.07864 140.094 6.69793 139.558 6.69198 138.954L6.35847 105.079C6.35019 104.238 7.0517 103.587 7.85831 103.62C8.09017 103.309 8.44846 103.087 8.88975 103.048L11.3817 102.832L11.2169 77.6084C11.2156 77.4088 11.3764 77.2459 11.576 77.2446C11.6112 77.2444 11.6452 77.2492 11.6774 77.2583L11.5784 66.7621V66.7611L11.5794 66.7611L13.8736 64.3655L11.8235 63.6706C11.6344 63.6066 11.5331 63.4013 11.5972 63.2123C11.6613 63.0232 11.8665 62.9219 12.0556 62.986L12.1216 63.0083C12.0008 62.7981 11.9321 62.5562 11.9296 62.3023L11.5934 27.8179C11.5924 27.7151 11.6021 27.6149 11.6215 27.5182C11.759 26.8295 12.3853 26.3204 13.1156 26.3595L21.6926 26.8193Z" fill="white"/>
<g opacity="0.9">
<path d="M15.7321 62.425L11.5781 66.7626L13.7454 73.992L75.5137 78.1488L75.6943 61.8828L15.7321 62.425Z" fill="white"/>
<path d="M22.3528 66.8602L12.9107 63.6572C12.3289 63.4599 11.9353 62.9164 11.9293 62.3021L11.5931 27.8177C11.585 26.9832 12.283 26.3151 13.1163 26.3598L21.6922 26.8195L82.5523 26.643C83.3524 26.6407 84.0023 27.2887 84.0023 28.0889V64.0843C84.0023 64.8696 83.3756 65.5113 82.5905 65.5298L22.8513 66.9364C22.6819 66.9404 22.5132 66.9146 22.3528 66.8602Z" fill="#FFB715"/>
<path d="M22.4295 27.5522C22.4281 27.1462 22.0981 26.8182 21.6924 26.8193L13.1154 26.3595C12.2827 26.3149 11.5852 26.983 11.5933 27.8174L11.9295 62.3017C11.9355 62.9161 12.3289 63.4596 12.9105 63.6569L20.6522 66.283C21.5912 66.6015 22.5644 65.9007 22.5609 64.9086L22.4295 27.5522Z" fill="#FFEA8A"/>
<path d="M52.0246 99.3115L8.88969 103.05C7.769 103.147 7.1836 104.431 7.84494 105.341L9.12434 107.101C9.19488 107.198 9.27723 107.286 9.36949 107.363L34.1212 127.945C34.5774 128.325 35.219 128.387 35.7395 128.102L75.8874 106.144C77.0847 105.489 76.7916 103.692 75.4482 103.452L52.4041 99.3287C52.2789 99.3063 52.1513 99.3005 52.0246 99.3115Z" fill="white"/>
<path d="M11.9393 105.077L75.3331 105.258L75.6943 66.4004L11.5781 66.7619L11.9393 105.077Z" fill="#FFB715"/>
<path d="M6.35864 105.079L6.69215 138.954C6.69809 139.558 7.07892 140.094 7.64711 140.3L28.4054 147.791C28.6229 147.87 28.856 147.895 29.0851 147.865L78.2366 141.388C78.9533 141.294 79.4901 140.685 79.4936 139.962L79.6605 105.569C79.6646 104.721 78.9416 104.052 78.0966 104.121L29.1308 108.132C28.989 108.143 28.8463 108.134 28.7073 108.104L8.10991 103.652C7.20345 103.456 6.34951 104.152 6.35864 105.079Z" fill="#FFB715"/>
<path d="M28.9345 108.165C28.9345 108.156 28.9271 108.149 28.9185 108.15C28.917 108.15 28.9156 108.15 28.9141 108.15L8.10784 103.652C7.20206 103.457 6.34885 104.153 6.35798 105.08L6.69149 138.954C6.69744 139.558 7.07815 140.095 7.6461 140.3L28.6645 147.886C28.7113 147.903 28.7614 147.908 28.8108 147.902C28.9662 147.881 29.0821 147.748 29.0815 147.591L28.9345 108.165Z" fill="#FFEA8A"/>
<path d="M119.402 67.4844L77.3203 70.9183L114.887 94.0522L185.505 94.9559L197.064 72.0027L119.402 67.4844Z" fill="white"/>
<path d="M77.3241 72.4824L77.498 143.472C77.4997 144.161 77.9874 144.754 78.6634 144.887L153.056 159.599C153.254 159.638 153.459 159.635 153.656 159.591L195.403 150.152C196.059 150.003 196.526 149.423 196.53 148.751L197.053 73.6219C197.059 72.7587 196.312 72.0826 195.454 72.1741L153.127 76.6874C153.04 76.6968 152.951 76.6981 152.864 76.6914L78.8802 71.0372C78.0393 70.9729 77.3221 71.639 77.3241 72.4824Z" fill="#FFEA8A"/>
<path d="M153.351 159.657C153.34 159.654 153.331 159.644 153.331 159.632L153.186 77.9832C153.185 77.243 153.742 76.6214 154.478 76.5429L195.454 72.1737C196.312 72.0821 197.059 72.7583 197.053 73.6215L196.53 148.751C196.525 149.423 196.058 150.003 195.403 150.151L153.362 159.657C153.358 159.657 153.355 159.657 153.351 159.657Z" fill="#FFB715"/>
<path d="M28.7363 108.512L29.0863 146.509C29.0923 147.159 29.6648 147.658 30.3094 147.575L75.3335 141.767" stroke="#212121" stroke-width="0.722935" stroke-linecap="round"/>
<path d="M11.9399 63.3281L23.1377 67.1235L73.5276 65.6777" stroke="#212121" stroke-width="0.722935" stroke-linecap="round"/>
<path d="M22.7765 66.9425L22.415 33.6875" stroke="#212121" stroke-width="0.722935" stroke-linecap="round"/>
<path d="M181.983 152.522C182.028 152.89 181.786 153.232 181.425 153.313L176.188 154.497C175.744 154.598 175.319 154.267 175.306 153.812L175.067 144.947C175.051 144.365 175.694 144.004 176.182 144.321L177.464 145.15C177.81 145.375 178.274 145.264 178.482 144.908L179.543 143.087C179.892 142.488 180.803 142.677 180.885 143.365L181.983 152.522Z" fill="white"/>
<path d="M19.0455 143.71C19.0837 144.1 18.8749 144.321 18.562 144.222L14.0267 142.786C13.6419 142.664 13.2735 142.121 13.2629 141.659L13.0555 132.674C13.0419 132.085 13.5986 132.045 14.0215 132.606L15.1318 134.078C15.4317 134.475 15.8329 134.596 16.0128 134.344L16.9322 133.054C17.2346 132.63 18.023 133.274 18.0945 134.003L19.0455 143.71Z" fill="white"/>
<path d="M14.5356 105.477C14.4974 105.087 14.7062 104.866 15.0191 104.965L19.5544 106.402C19.9392 106.523 20.3075 107.067 20.3182 107.528L20.5255 116.513C20.5391 117.103 19.9825 117.142 19.5596 116.582L18.4492 115.11C18.1494 114.712 17.7482 114.591 17.5682 114.844L16.6489 116.134C16.3465 116.558 15.5581 115.914 15.4866 115.184L14.5356 105.477Z" fill="white"/>
<path d="M172.439 75.0686C172.443 74.6981 172.727 74.3912 173.096 74.3578L178.443 73.8738C178.897 73.8327 179.275 74.2166 179.227 74.6697L178.299 83.4888C178.238 84.0675 177.553 84.3407 177.11 83.9628L175.949 82.9713C175.635 82.7034 175.161 82.7519 174.908 83.0779L173.617 84.7429C173.192 85.2908 172.314 84.9839 172.323 84.2905L172.439 75.0686Z" fill="white"/>
<path d="M11.5781 77.6055L11.7494 103.821C11.7545 104.616 12.4003 105.258 13.1952 105.258H49.3254" stroke="#212121" stroke-width="0.722935" stroke-linecap="round"/>
</g>
<path d="M153.357 92.0645V159.297L80.3906 145.2" stroke="black" stroke-width="0.722935"/>
<path d="M141.806 138.675C141.312 140.927 141.145 145.917 144.432 147.866C147.718 149.814 153.381 147.97 155.802 146.805C166.093 151.228 187.637 162.513 191.487 172.264" stroke="#212121" stroke-width="1.53583" stroke-linecap="round"/>
<path d="M161.021 102.05C162.55 104.465 185.317 126.588 196.51 137.347L191.479 165.727L180.345 163.495C170.166 159.768 166.131 151.724 165.386 148.168L155.153 143.32L150.744 144.659C149.557 145.121 146.719 145.533 144.867 143.487C143.015 141.441 143.271 138.137 143.631 136.741C137.584 137.099 135.253 130.697 134.843 127.451C133.167 127.86 129.208 128.012 126.784 125.349C124.36 122.686 126.013 116.229 127.143 113.334L126.87 113.07C125.488 115.984 123.657 116.657 122.914 116.63C119.351 116.839 116.958 109.991 117.83 105.766C118.702 101.541 126.876 92.9734 131.953 92.0762C140.28 90.6047 156.44 94.8107 161.021 102.05Z" fill="#D4D4D4"/>
<path fill-rule="evenodd" clip-rule="evenodd" d="M119.095 102.889C120.212 101.053 121.925 98.9916 123.839 97.1601C131.198 93.8516 143.523 99.5307 139.895 104.976L139.498 106.773C138.804 106.331 137.967 105.784 137.046 105.182C132.843 102.433 126.885 98.5379 124.814 98.3076C121.657 97.9566 122.359 103.923 124.463 108.837C126.147 112.768 135.687 121.238 140.246 124.982L144.104 132.001L148.664 140.073C148.411 140.958 147.06 141.89 143.794 141.632C143.16 139.807 143.368 137.763 143.631 136.741C137.584 137.099 135.253 130.697 134.843 127.451C133.167 127.86 129.208 128.012 126.784 125.349C124.36 122.686 126.013 116.229 127.143 113.333L126.87 113.07C125.488 115.984 123.657 116.657 122.914 116.629C120.114 116.794 118.036 112.599 117.698 108.745C118.068 106.733 118.554 104.765 119.095 102.889Z" fill="#969696"/>
<path d="M134.03 122.503C133.861 123.041 133.791 123.628 133.938 124.187C134.209 125.215 136.458 125.544 138.324 125.599C139.067 125.622 139.533 124.847 139.216 124.175C139.146 124.026 139.042 123.896 138.912 123.795L136.58 121.981C135.691 121.289 134.368 121.426 134.03 122.501L134.03 122.503Z" fill="#EFEFEF"/>
<path d="M130.778 102.878C129.826 101.896 128.634 100.936 127.595 100.801C125.708 100.556 122.454 103.034 125.388 107.077C125.987 107.903 127.149 107.99 127.987 107.408L130.398 105.736C131.365 105.065 131.597 103.723 130.778 102.878Z" fill="#EFEFEF"/>
<path d="M139.239 106.118C139.485 104.559 139.99 101.379 140.035 101.131" stroke="#212121" stroke-width="2.10584" stroke-linecap="round"/>
<path d="M131.103 116.832C130.389 117.237 128.853 118.049 128.424 118.057" stroke="#212121" stroke-width="2.10584" stroke-linecap="round"/>
<path d="M127.058 113.21C126.523 114.396 124.904 116.732 122.707 116.591C119.962 116.414 115.575 108.776 119.031 102.668C122.487 96.5594 128.784 92.4625 133.598 91.8384" stroke="#212121" stroke-width="2.10584" stroke-linecap="round"/>
<path d="M126.973 113.087C125.741 116.748 124.203 124.259 127.687 126.259C131.171 128.259 137.92 126.974 140.859 126.081" stroke="#212121" stroke-width="2.10584" stroke-linecap="round"/>
<path d="M134.862 127.348C134.83 130.87 137.069 137.583 146.282 136.26" stroke="#212121" stroke-width="2.10584" stroke-linecap="round"/>
<path d="M151.446 113.604C140.72 113.611 133.417 99.059 126.696 99.0853C122.233 99.1028 120.199 106.836 127.744 113.549C133.78 118.92 139.109 123.948 141.019 125.791C142.225 129.751 146.703 138.773 154.964 143.179" stroke="#212121" stroke-width="2.10584" stroke-linecap="round"/>
<path d="M117.838 81.5729C118.71 80.6244 120.187 80.5636 121.135 81.4372L124.74 84.7589C125.478 85.4392 125.66 86.5344 125.181 87.4167C122.29 92.747 118.152 97.2982 113.122 100.682L112.753 100.931C111.872 101.524 110.699 101.434 109.917 100.714L106.389 97.4633C105.441 96.5898 105.38 95.1127 106.252 94.1641L117.838 81.5729Z" fill="#212121"/>
<ellipse cx="37.109" cy="37.133" rx="37.109" ry="37.133" transform="matrix(0.983964 0.178367 -0.178129 0.984007 60.9814 25.4453)" fill="#212121"/>
<path d="M127.153 98.2276L118.84 91.0219L110.032 94.2375L122.429 107.198C121.866 104.158 122.611 101.084 123.282 99.939L127.153 98.2276Z" fill="#212121"/>
<ellipse cx="29.0148" cy="29.0335" rx="29.0148" ry="29.0335" transform="matrix(0.983964 0.178367 -0.178129 0.984007 67.6035 35.0039)" fill="#F0F0F0"/>
<path d="M87.8774 55.8345C90.7883 54.0892 94.865 54.8281 96.9791 57.4844C99.0954 60.141 98.4494 63.7094 95.5363 65.4544C95.0312 65.7597 94.487 65.9871 93.927 66.1428C92.1882 66.6281 90.4276 67.7237 90.1058 69.5015L89.8142 71.1119M87.9721 81.3741L87.8833 81.8645" stroke="#FFB715" stroke-width="5.98128" stroke-linecap="round" stroke-linejoin="round"/>
<path d="M127.542 43.0325L131.873 35.6935" stroke="white" stroke-width="1.36646" stroke-linecap="round"/>
<path d="M130.275 46.2314L136.932 40.8448" stroke="white" stroke-width="1.36646" stroke-linecap="round"/>
<path d="M132.806 49.8206L141.159 47.753" stroke="white" stroke-width="1.36646" stroke-linecap="round"/>
<path d="M48.9122 81.2555L40.6638 83.3802" stroke="white" stroke-width="1.36646" stroke-linecap="round"/>
<path d="M49.2403 77.0594L40.7266 76.1576" stroke="white" stroke-width="1.36646" stroke-linecap="round"/>
<path d="M49.9866 72.7313L42.619 68.2827" stroke="white" stroke-width="1.36646" stroke-linecap="round"/>
</g>
</svg>
