<svg width="19" height="21" viewBox="0 0 19 21" fill="none" xmlns="http://www.w3.org/2000/svg">
<path d="M17.5001 7.00001L11.5001 1.74001C10.9501 1.24805 10.238 0.976074 9.50009 0.976074C8.76216 0.976074 8.05012 1.24805 7.50009 1.74001L1.50009 7.00001C1.18246 7.28408 0.928995 7.63256 0.756567 8.02225C0.584139 8.41194 0.496707 8.83389 0.500095 9.26001V18C0.500095 18.7957 0.816165 19.5587 1.37877 20.1213C1.94138 20.6839 2.70445 21 3.50009 21H15.5001C16.2957 21 17.0588 20.6839 17.6214 20.1213C18.184 19.5587 18.5001 18.7957 18.5001 18V9.25001C18.5021 8.82557 18.4139 8.40555 18.2416 8.01769C18.0692 7.62983 17.8165 7.28296 17.5001 7.00001ZM11.5001 19H7.50009V14C7.50009 13.7348 7.60545 13.4804 7.79299 13.2929C7.98052 13.1054 8.23488 13 8.50009 13H10.5001C10.7653 13 11.0197 13.1054 11.2072 13.2929C11.3947 13.4804 11.5001 13.7348 11.5001 14V19ZM16.5001 18C16.5001 18.2652 16.3947 18.5196 16.2072 18.7071C16.0197 18.8946 15.7653 19 15.5001 19H13.5001V14C13.5001 13.2044 13.184 12.4413 12.6214 11.8787C12.0588 11.3161 11.2957 11 10.5001 11H8.50009C7.70444 11 6.94138 11.3161 6.37877 11.8787C5.81616 12.4413 5.50009 13.2044 5.50009 14V19H3.50009C3.23488 19 2.98052 18.8946 2.79299 18.7071C2.60545 18.5196 2.50009 18.2652 2.50009 18V9.25001C2.50027 9.10802 2.53069 8.9677 2.58931 8.83839C2.64794 8.70907 2.73343 8.59372 2.8401 8.50001L8.84009 3.25001C9.02258 3.08969 9.25719 3.00127 9.50009 3.00127C9.743 3.00127 9.97761 3.08969 10.1601 3.25001L16.1601 8.50001C16.2668 8.59372 16.3523 8.70907 16.4109 8.83839C16.4695 8.9677 16.4999 9.10802 16.5001 9.25001V18Z" fill="#F9F9F9"/>
</svg>
