<svg width="233" height="179" viewBox="0 0 233 179" fill="none" xmlns="http://www.w3.org/2000/svg">
<path d="M101.453 176.042H145.453" stroke="#EAEAEA" stroke-width="4" stroke-linecap="round" stroke-linejoin="round"/>
<mask id="mask0_9980_19902" style="mask-type:alpha" maskUnits="userSpaceOnUse" x="56" y="0" width="135" height="174">
<path d="M190.453 0V174H56.4521V0H190.453Z" fill="#FF0000"/>
</mask>
<g mask="url(#mask0_9980_19902)">
<path d="M188.453 100C188.453 135.898 159.351 165 123.453 165C87.5546 165 58.4526 135.898 58.4526 100C58.4526 64.102 87.5546 35 123.453 35C159.351 35 188.453 64.102 188.453 100Z" fill="#EAEAEA"/>
<path d="M188.453 100C188.453 135.898 159.351 165 123.453 165C87.5546 165 58.4526 135.898 58.4526 100C58.4526 64.102 87.5546 35 123.453 35C159.351 35 188.453 64.102 188.453 100Z" stroke="#1F1D1D" stroke-width="4" stroke-miterlimit="10"/>
<path d="M178.453 100C178.453 130.376 153.829 155 123.453 155C93.0776 155 68.4526 130.376 68.4526 100C68.4526 69.625 93.0776 45 123.453 45C153.829 45 178.453 69.625 178.453 100Z" fill="white"/>
<path d="M178.453 100C178.453 130.376 153.829 155 123.453 155C93.0776 155 68.4526 130.376 68.4526 100C68.4526 69.625 93.0776 45 123.453 45C153.829 45 178.453 69.625 178.453 100Z" stroke="#1F1D1D" stroke-width="4" stroke-miterlimit="10"/>
<path d="M150.953 52.369L147.653 58.085" stroke="#1F1D1D" stroke-width="4" stroke-miterlimit="10" stroke-linecap="round"/>
<path d="M171.085 72.5L165.369 75.8" stroke="#1F1D1D" stroke-width="4" stroke-miterlimit="10" stroke-linecap="round"/>
<path d="M178.453 100H171.853" stroke="#1F1D1D" stroke-width="4" stroke-miterlimit="10" stroke-linecap="round"/>
<path d="M171.085 127.5L165.369 124.2" stroke="#1F1D1D" stroke-width="4" stroke-miterlimit="10" stroke-linecap="round"/>
<path d="M150.953 147.632L147.653 141.916" stroke="#1F1D1D" stroke-width="4" stroke-miterlimit="10" stroke-linecap="round"/>
<path d="M123.453 155V148.4" stroke="#1F1D1D" stroke-width="4" stroke-miterlimit="10" stroke-linecap="round"/>
<path d="M95.9526 147.632L99.2526 141.916" stroke="#1F1D1D" stroke-width="4" stroke-miterlimit="10" stroke-linecap="round"/>
<path d="M75.8215 127.5L81.5375 124.2" stroke="#1F1D1D" stroke-width="4" stroke-miterlimit="10" stroke-linecap="round"/>
<path d="M68.4526 100H75.0526" stroke="#1F1D1D" stroke-width="4" stroke-miterlimit="10" stroke-linecap="round"/>
<path d="M75.8215 72.5L81.5375 75.8" stroke="#1F1D1D" stroke-width="4" stroke-miterlimit="10" stroke-linecap="round"/>
<path d="M95.9526 52.369L99.2526 58.085" stroke="#1F1D1D" stroke-width="4" stroke-miterlimit="10" stroke-linecap="round"/>
<path d="M123.453 45V51.6" stroke="#1F1D1D" stroke-width="4" stroke-miterlimit="10" stroke-linecap="round"/>
</g>
<path d="M87.4285 108.709L122.906 100.132" stroke="#1F1D1D" stroke-width="4" stroke-miterlimit="10" stroke-linecap="round"/>
<path d="M145.803 108.744L123.453 100" stroke="#1F1D1D" stroke-width="4" stroke-miterlimit="10" stroke-linecap="round"/>
<path d="M128.953 100C128.953 103.037 126.49 105.5 123.453 105.5C120.415 105.5 117.953 103.037 117.953 100C117.953 96.962 120.415 94.5 123.453 94.5C126.49 94.5 128.953 96.962 128.953 100Z" fill="#FFB715"/>
<path d="M128.953 100C128.953 103.037 126.49 105.5 123.453 105.5C120.415 105.5 117.953 103.037 117.953 100C117.953 96.962 120.415 94.5 123.453 94.5C126.49 94.5 128.953 96.962 128.953 100Z" stroke="#1F1D1D" stroke-width="4" stroke-miterlimit="10"/>
<path d="M196.453 101.496C196.453 103.654 196.453 106.647 196.453 110V101.496ZM196.453 174.504C196.453 172.346 196.453 169.353 196.453 166V174.504ZM232.957 138C230.799 138 227.806 138 224.453 138H232.957ZM159.949 138C162.107 138 165.1 138 168.453 138H159.949Z" fill="white"/>
<path d="M216.724 117.729C216.568 117.885 216.411 118.042 216.252 118.201L216.724 117.729ZM176.182 158.271C176.338 158.115 176.495 157.958 176.654 157.799L176.182 158.271ZM216.724 158.271C216.568 158.115 216.411 157.958 216.252 157.799L216.724 158.271ZM176.182 117.729C176.338 117.885 176.495 118.042 176.654 118.201L176.182 117.729Z" fill="white"/>
<path d="M197.163 138.067L197.114 137.931C197.03 137.961 196.938 137.918 196.907 137.835C196.877 137.751 196.92 137.658 197.004 137.628L196.954 137.492C196.936 137.441 196.88 137.416 196.83 137.434L195.8 137.809C195.75 137.827 195.724 137.882 195.742 137.933L195.792 138.069C195.875 138.039 195.968 138.082 195.998 138.165C196.029 138.249 195.986 138.341 195.902 138.372L195.952 138.508C195.97 138.558 196.025 138.584 196.076 138.566L197.106 138.191C197.156 138.173 197.182 138.117 197.163 138.067Z" fill="#FFB715"/>
<path d="M197.163 138.067L197.114 137.931C197.03 137.961 196.938 137.918 196.907 137.835C196.877 137.751 196.92 137.658 197.004 137.628L196.954 137.492C196.936 137.441 196.88 137.416 196.83 137.434L195.8 137.809C195.75 137.827 195.724 137.882 195.742 137.933L195.792 138.069C195.875 138.039 195.968 138.082 195.998 138.165C196.029 138.249 195.986 138.341 195.902 138.372L195.952 138.508C195.97 138.558 196.025 138.584 196.076 138.566L197.106 138.191C197.156 138.173 197.182 138.117 197.163 138.067Z" stroke="#1F1D1D" stroke-width="0.0644746" stroke-miterlimit="10"/>
<path d="M196.254 138.209L196.166 137.967C196.16 137.95 196.169 137.932 196.186 137.926L196.61 137.771C196.626 137.765 196.645 137.774 196.651 137.791L196.739 138.033C196.745 138.05 196.737 138.068 196.72 138.074L196.296 138.229C196.279 138.235 196.261 138.226 196.254 138.209Z" fill="white"/>
<path d="M196.254 138.209L196.166 137.967C196.16 137.95 196.169 137.932 196.186 137.926L196.61 137.771C196.626 137.765 196.645 137.774 196.651 137.791L196.739 138.033C196.745 138.05 196.737 138.068 196.72 138.074L196.296 138.229C196.279 138.235 196.261 138.226 196.254 138.209Z" stroke="#1F1D1D" stroke-width="0.0644746" stroke-miterlimit="10"/>
<mask id="mask1_9980_19902" style="mask-type:alpha" maskUnits="userSpaceOnUse" x="2" y="79" width="83" height="91">
<path d="M84.0008 157.119L15.0574 169.236L2.77519 99.3498L71.7186 87.2333L84.0008 157.119ZM22.4604 95.8608L12.6271 97.589L10.9045 87.7872L20.7378 86.059L22.4604 95.8608ZM61.8674 88.9524L52.0184 90.6833L50.2885 80.8402L60.1375 79.1093L61.8674 88.9524Z" fill="#FF0000"/>
</mask>
<g mask="url(#mask1_9980_19902)">
<path d="M70.1587 78.3575L84.0062 157.15L15.0628 169.266L1.21533 90.474L70.1587 78.3575Z" fill="white"/>
</g>
<mask id="mask2_9980_19902" style="mask-type:alpha" maskUnits="userSpaceOnUse" x="2" y="87" width="73" height="29">
<path d="M74.4852 102.976L5.54187 115.093L2.77515 99.3499L71.7185 87.2333L74.4852 102.976Z" fill="#FFCC00"/>
</mask>
<g mask="url(#mask2_9980_19902)">
<path d="M70.1587 78.3575L84.0062 157.15L15.0628 169.266L1.21533 90.474L70.1587 78.3575Z" fill="#FFB715"/>
</g>
<path d="M2.77519 99.3498L15.0574 169.236L84.0008 157.119L71.7186 87.2333M2.77519 99.3498L71.7186 87.2333M2.77519 99.3498L5.54243 115.096L74.4858 102.979L71.7186 87.2333M22.4604 95.8608L12.6271 97.589L10.9015 87.7704L20.7348 86.0423L22.4604 95.8608ZM61.8674 88.9524L52.0184 90.6833L50.2885 80.8402L60.1375 79.1093L61.8674 88.9524Z" stroke="black" stroke-width="4" stroke-miterlimit="10"/>
<path d="M28.7051 131.346L16.8862 133.424L14.8091 121.605L26.6279 119.528L28.7051 131.346Z" fill="#FFB715"/>
<path d="M49.3879 127.712L37.5691 129.789L35.4919 117.97L47.3108 115.893L49.3879 127.712Z" fill="#FFEFD6"/>
<path d="M70.071 124.077L58.2522 126.154L56.175 114.335L67.9939 112.258L70.071 124.077Z" fill="#FFEFD6"/>
<path d="M31.8208 149.075L20.0019 151.152L17.9248 139.333L29.7437 137.256L31.8208 149.075Z" fill="#F3F3F3"/>
</svg>
