<svg width="34" height="34" viewBox="0 0 34 34" fill="none" xmlns="http://www.w3.org/2000/svg">
<rect x="0.5" y="0.5" width="33" height="33" rx="16.5" fill="#121212"/>
<rect x="0.5" y="0.5" width="33" height="33" rx="16.5" stroke="#FFB715"/>
<path d="M15.7503 13.6667C15.422 13.6667 15.0969 13.7314 14.7936 13.857C14.4903 13.9827 14.2147 14.1668 13.9826 14.399C13.7504 14.6311 13.5663 14.9067 13.4406 15.21C13.315 15.5134 13.2503 15.8384 13.2503 16.1667C13.2503 16.4951 13.315 16.8201 13.4406 17.1235C13.5663 17.4268 13.7504 17.7024 13.9826 17.9345C14.2147 18.1667 14.4903 18.3508 14.7936 18.4764C15.0969 18.6021 15.422 18.6667 15.7503 18.6667C16.4134 18.6667 17.0493 18.4034 17.5181 17.9345C17.9869 17.4657 18.2503 16.8298 18.2503 16.1667C18.2503 15.5037 17.9869 14.8678 17.5181 14.399C17.0493 13.9301 16.4134 13.6667 15.7503 13.6667ZM14.5003 16.1667C14.5003 15.8352 14.632 15.5173 14.8664 15.2829C15.1009 15.0484 15.4188 14.9167 15.7503 14.9167C16.0818 14.9167 16.3998 15.0484 16.6342 15.2829C16.8686 15.5173 17.0003 15.8352 17.0003 16.1667C17.0003 16.4983 16.8686 16.8162 16.6342 17.0506C16.3998 17.2851 16.0818 17.4167 15.7503 17.4167C15.4188 17.4167 15.1009 17.2851 14.8664 17.0506C14.632 16.8162 14.5003 16.4983 14.5003 16.1667ZM8.66699 13.0417C8.66699 12.5445 8.86454 12.0676 9.21617 11.7159C9.5678 11.3643 10.0447 11.1667 10.542 11.1667H20.9587C21.2049 11.1667 21.4487 11.2152 21.6762 11.3095C21.9037 11.4037 22.1104 11.5418 22.2845 11.7159C22.4586 11.89 22.5967 12.0967 22.6909 12.3242C22.7852 12.5517 22.8337 12.7955 22.8337 13.0417V19.2917C22.8337 19.538 22.7852 19.7818 22.6909 20.0093C22.5967 20.2368 22.4586 20.4435 22.2845 20.6176C22.1104 20.7917 21.9037 20.9298 21.6762 21.024C21.4487 21.1182 21.2049 21.1667 20.9587 21.1667H10.542C10.0447 21.1667 9.5678 20.9692 9.21617 20.6176C8.86454 20.2659 8.66699 19.789 8.66699 19.2917V13.0417ZM10.542 12.4167C10.3762 12.4167 10.2173 12.4826 10.1001 12.5998C9.98284 12.717 9.91699 12.876 9.91699 13.0417V13.6667H10.542C10.7078 13.6667 10.8667 13.6009 10.9839 13.4837C11.1011 13.3665 11.167 13.2075 11.167 13.0417V12.4167H10.542ZM9.91699 17.4167H10.542C11.0393 17.4167 11.5162 17.6143 11.8678 17.9659C12.2194 18.3176 12.417 18.7945 12.417 19.2917V19.9167H19.0837V19.2917C19.0837 18.7945 19.2812 18.3176 19.6328 17.9659C19.9845 17.6143 20.4614 17.4167 20.9587 17.4167H21.5837V14.9167H20.9587C20.4614 14.9167 19.9845 14.7192 19.6328 14.3676C19.2812 14.0159 19.0837 13.539 19.0837 13.0417V12.4167H12.417V13.0417C12.417 13.288 12.3685 13.5318 12.2743 13.7593C12.18 13.9868 12.0419 14.1935 11.8678 14.3676C11.6937 14.5417 11.487 14.6798 11.2595 14.774C11.032 14.8682 10.7882 14.9167 10.542 14.9167H9.91699V17.4167ZM21.5837 13.6667V13.0417C21.5837 12.876 21.5178 12.717 21.4006 12.5998C21.2834 12.4826 21.1244 12.4167 20.9587 12.4167H20.3337V13.0417C20.3337 13.3867 20.6137 13.6667 20.9587 13.6667H21.5837ZM21.5837 18.6667H20.9587C20.7929 18.6667 20.6339 18.7326 20.5167 18.8498C20.3995 18.967 20.3337 19.126 20.3337 19.2917V19.9167H20.9587C21.1244 19.9167 21.2834 19.8509 21.4006 19.7337C21.5178 19.6165 21.5837 19.4575 21.5837 19.2917V18.6667ZM9.91699 19.2917C9.91699 19.6367 10.197 19.9167 10.542 19.9167H11.167V19.2917C11.167 19.126 11.1011 18.967 10.9839 18.8498C10.8667 18.7326 10.7078 18.6667 10.542 18.6667H9.91699V19.2917ZM10.6678 22.4167C10.8872 22.797 11.2029 23.1127 11.5832 23.3321C11.9634 23.5516 12.3947 23.667 12.8337 23.6667H21.3753C21.8951 23.6667 22.4099 23.5644 22.8901 23.3654C23.3704 23.1665 23.8067 22.8749 24.1743 22.5074C24.5419 22.1398 24.8334 21.7035 25.0323 21.2232C25.2313 20.743 25.3337 20.2282 25.3337 19.7084V15.3334C25.3338 14.8944 25.2183 14.4632 24.9989 14.083C24.7795 13.7028 24.4638 13.3871 24.0837 13.1676V19.7084C24.0837 20.4267 23.7983 21.1156 23.2904 21.6235C22.7825 22.1314 22.0936 22.4167 21.3753 22.4167H10.6678Z" fill="#F9F9F9"/>
</svg>
