<svg width="154" height="154" viewBox="0 0 154 154" fill="none" xmlns="http://www.w3.org/2000/svg">
<mask id="mask0_66_488" style="mask-type:luminance" maskUnits="userSpaceOnUse" x="0" y="0" width="154" height="154">
<path d="M153.75 0H0.25V153.5H153.75V0Z" fill="white"/>
</mask>
<g mask="url(#mask0_66_488)">
<g opacity="0.630951">
<path d="M107.445 129.892C107.445 135.3 93.8144 139.684 77 139.684C60.1859 139.684 46.5552 135.3 46.5552 129.892C46.5552 124.484 60.1859 120.1 77 120.1C93.8144 120.1 107.445 124.484 107.445 129.892Z" fill="#FFF4C5"/>
</g>
<g opacity="0.624588">
<path d="M100.68 128.536C100.68 132.122 90.2124 135.03 77.2997 135.03C64.387 135.03 53.9192 132.122 53.9192 128.536C53.9192 124.949 64.387 122.041 77.2997 122.041C90.2124 122.041 100.68 124.949 100.68 128.536Z" fill="#D7D7D7"/>
</g>
<path d="M74.4879 124.307C72.8888 122.556 35.3271 81.1068 35.3271 52.8727C35.3275 30.1223 54.1564 11.6133 77.3001 11.6133C100.444 11.6133 119.272 30.1223 119.272 52.8727C119.272 81.1068 81.7111 122.556 80.112 124.307C78.6097 125.952 75.987 125.949 74.4879 124.307Z" fill="#B3950F"/>
<path d="M119.272 52.8727C119.272 30.1223 100.443 11.6133 77.2998 11.6133V125.539C78.3302 125.539 79.361 125.129 80.112 124.307C81.7105 122.556 119.272 81.1068 119.272 52.8727Z" fill="#FFB715"/>
<path d="M77.2998 77.7988C64.9011 77.7988 54.8145 67.7119 54.8145 55.3135C54.8145 42.9151 64.9017 32.8281 77.2998 32.8281C89.6979 32.8281 99.7852 42.9151 99.7852 55.3135C99.7852 67.7119 89.6979 77.7988 77.2998 77.7988Z" fill="#F9F9F9"/>
<path d="M77.2998 32.8281V77.7988C89.8637 77.7988 100.085 67.7119 100.085 55.3135C100.085 42.9148 89.8634 32.8281 77.2998 32.8281Z" fill="#FFF4C5"/>
</g>
</svg>
