<svg width="56" height="44" viewBox="0 0 56 44" fill="none" xmlns="http://www.w3.org/2000/svg">
<path d="M26.8219 43.5737C26.8219 43.5737 26.8219 35.3237 26.8219 22.9382C26.8219 10.5737 26.8219 2.32373 26.8219 2.32373C38.604 2.32373 47.4212 12.3784 47.4212 22.8972C47.4212 33.7769 38.5008 43.5737 26.8219 43.5737Z" fill="#FF9F00"/>
<path d="M47.4717 22.9487C47.4717 34.3395 38.2375 43.5737 26.8467 43.5737C15.4559 43.5737 6.22168 34.3395 6.22168 22.9487C6.22168 11.558 15.4559 2.32373 26.8467 2.32373C38.2375 2.32373 47.4717 11.558 47.4717 22.9487Z" fill="url(#paint0_linear_89_2665)"/>
<path d="M43.3467 22.9478C43.3467 32.0605 35.9594 39.4478 26.8467 39.4478C17.7339 39.4478 10.3467 32.0605 10.3467 22.9478C10.3467 13.835 17.7339 6.44775 26.8467 6.44775C35.9594 6.44775 43.3467 13.835 43.3467 22.9478Z" fill="#FFBB00"/>
<path d="M41.7998 22.9478C41.7998 31.2062 35.1051 37.9009 26.8467 37.9009C18.5882 37.9009 11.8936 31.2062 11.8936 22.9478C11.8936 14.6893 18.5882 7.99463 26.8467 7.99463C35.1051 7.99463 41.7998 14.6893 41.7998 22.9478Z" fill="url(#paint1_linear_89_2665)"/>
<path d="M27.5963 13.4571L30.0691 18.4675C30.2285 18.7907 30.5368 19.0149 30.8937 19.0666L36.4232 19.8702C36.8724 19.9354 37.0517 20.4873 36.7266 20.8041L32.7256 24.7043C32.4675 24.9559 32.3498 25.3183 32.4106 25.6737L33.355 31.1807C33.4318 31.6281 32.9623 31.9692 32.5606 31.758L27.6149 29.1578C27.2958 28.9902 26.9147 28.9902 26.5956 29.1578L21.6499 31.758C21.2482 31.9692 20.7787 31.6281 20.8555 31.1807L21.7999 25.6737C21.8607 25.3183 21.743 24.9559 21.4849 24.7043L17.4839 20.8041C17.1588 20.4873 17.3381 19.9354 17.7873 19.8702L23.3169 19.0666C23.6737 19.0149 23.982 18.7907 24.1414 18.4675L26.6142 13.4571C26.8151 13.0501 27.3954 13.0501 27.5963 13.4571Z" fill="url(#paint2_linear_89_2665)"/>
<path d="M30.5847 18.9843C30.7444 19.3075 31.0527 19.5317 31.4095 19.5835L36.8904 20.38C36.8743 20.1383 36.7009 19.9118 36.4233 19.8714L30.8939 19.0679C30.7803 19.0514 30.6747 19.012 30.5742 18.9629L30.5847 18.9843Z" fill="#E26500"/>
<path d="M21.3711 31.6969L22.3155 26.1898C22.3764 25.8345 22.2588 25.4721 22.0006 25.2205L21.533 24.7646C21.7537 25.0124 21.8564 25.3444 21.7999 25.6742L20.8555 31.1813C20.7965 31.5249 21.0603 31.8031 21.3678 31.8192C21.3657 31.7792 21.3639 31.7392 21.3711 31.6969Z" fill="#E26500"/>
<path d="M18.3029 20.3858L23.8323 19.5823C24.1891 19.5305 24.4974 19.3063 24.6571 18.9831L27.1298 13.9727C27.2449 13.7394 27.4841 13.6445 27.7056 13.6786L27.5963 13.4571C27.3954 13.0501 26.8151 13.0501 26.6142 13.4571L24.1414 18.4675C23.9818 18.7907 23.6735 19.0149 23.3166 19.0666L17.7873 19.8702C17.3381 19.9354 17.1588 20.4873 17.4839 20.8041L17.9595 21.2679C17.6988 20.9464 17.8764 20.4477 18.3029 20.3858Z" fill="#E26500"/>
<mask id="mask0_89_2665" style="mask-type:alpha" maskUnits="userSpaceOnUse" x="6" y="2" width="42" height="42">
<path d="M26.8467 2.32373C15.4559 2.32373 6.22168 11.5577 6.22168 22.9487C6.22168 34.3395 15.4559 43.5737 26.8467 43.5737C38.2375 43.5737 47.4717 34.3395 47.4717 22.9487C47.4717 11.5577 38.2375 2.32373 26.8467 2.32373ZM26.8467 39.4487C17.7339 39.4487 10.3467 32.0615 10.3467 22.9487C10.3467 13.836 17.7339 6.44873 26.8467 6.44873C35.9594 6.44873 43.3467 13.836 43.3467 22.9487C43.3467 32.0615 35.9594 39.4487 26.8467 39.4487Z" fill="#231526"/>
<path d="M26.8477 7.99658C18.5892 7.99658 11.8945 14.6913 11.8945 22.9497C11.8945 31.2082 18.5892 37.9028 26.8477 37.9028C35.1061 37.9028 41.8008 31.2082 41.8008 22.9497C41.8008 14.6913 35.1061 7.99658 26.8477 7.99658Z" fill="#231526"/>
</mask>
<g mask="url(#mask0_89_2665)">
<g opacity="0.5">
<path d="M74.7434 10.6451L64.1374 23.2849L24.3257 -10.1211L34.9317 -22.7608L74.7434 10.6451Z" fill="white"/>
</g>
</g>
<path d="M52.3934 2.66758C50.2127 4.36059 49.6827 4.44236 47.0932 3.48523C48.7862 5.66594 48.8679 6.19597 47.9108 8.78551C50.0915 7.0925 50.6215 7.01073 53.2111 7.96786C51.5181 5.78715 51.4363 5.25712 52.3934 2.66758Z" fill="url(#paint3_linear_89_2665)"/>
<g opacity="0.440667">
<path d="M2.5703 30.7092C1.91437 31.7518 1.70463 31.867 0.472905 31.8608C1.51548 32.5168 1.63064 32.7265 1.62451 33.9582C2.28044 32.9157 2.49018 32.8005 3.72191 32.8066C2.67933 32.1507 2.56417 31.941 2.5703 30.7092Z" fill="url(#paint4_linear_89_2665)"/>
</g>
<defs>
<linearGradient id="paint0_linear_89_2665" x1="15.901" y1="5.61569" x2="40.6823" y2="38.3768" gradientUnits="userSpaceOnUse">
<stop stop-color="#FFEA00"/>
<stop offset="0.5" stop-color="#FFC700"/>
<stop offset="1" stop-color="#FFA500"/>
</linearGradient>
<linearGradient id="paint1_linear_89_2665" x1="18.7666" y1="10.276" x2="37.1097" y2="34.2826" gradientUnits="userSpaceOnUse">
<stop stop-color="#FFE900"/>
<stop offset="0.5" stop-color="#FFC700"/>
<stop offset="1" stop-color="#FFA600"/>
</linearGradient>
<linearGradient id="paint2_linear_89_2665" x1="27.0537" y1="13.0487" x2="27.0537" y2="31.7191" gradientUnits="userSpaceOnUse">
<stop stop-color="#FFAD00"/>
<stop offset="0.5" stop-color="#FF8F00"/>
<stop offset="1" stop-color="#FF7100"/>
</linearGradient>
<linearGradient id="paint3_linear_89_2665" x1="58.6941" y1="-44.4289" x2="89.2837" y2="-22.0157" gradientUnits="userSpaceOnUse">
<stop stop-color="#FFEA00"/>
<stop offset="0.5" stop-color="#FFE400"/>
<stop offset="1" stop-color="#FFDD00"/>
</linearGradient>
<linearGradient id="paint4_linear_89_2665" x1="-1.97485" y1="10.0023" x2="14.2702" y2="14.7313" gradientUnits="userSpaceOnUse">
<stop stop-color="#FFEA00"/>
<stop offset="0.5" stop-color="#FFE400"/>
<stop offset="1" stop-color="#FFDD00"/>
</linearGradient>
</defs>
</svg>
