<svg width="32" height="32" viewBox="0 0 32 32" fill="none" xmlns="http://www.w3.org/2000/svg">
<rect width="32" height="32" rx="16" fill="#FFEFD6"/>
<path d="M24.267 15.6667C22.5836 11.7583 19.417 9.33334 16.0003 9.33334C12.5836 9.33334 9.41697 11.7583 7.73363 15.6667C7.68775 15.7718 7.66406 15.8853 7.66406 16C7.66406 16.1147 7.68775 16.2282 7.73363 16.3333C9.41697 20.2417 12.5836 22.6667 16.0003 22.6667C19.417 22.6667 22.5836 20.2417 24.267 16.3333C24.3129 16.2282 24.3365 16.1147 24.3365 16C24.3365 15.8853 24.3129 15.7718 24.267 15.6667ZM16.0003 21C13.3586 21 10.8586 19.0917 9.41697 16C10.8586 12.9083 13.3586 11 16.0003 11C18.642 11 21.142 12.9083 22.5836 16C21.142 19.0917 18.642 21 16.0003 21ZM16.0003 12.6667C15.341 12.6667 14.6966 12.8622 14.1484 13.2284C13.6002 13.5947 13.173 14.1153 12.9207 14.7244C12.6684 15.3335 12.6024 16.0037 12.731 16.6503C12.8596 17.2969 13.1771 17.8909 13.6433 18.357C14.1095 18.8232 14.7034 19.1407 15.35 19.2693C15.9966 19.3979 16.6668 19.3319 17.2759 19.0796C17.885 18.8273 18.4056 18.4001 18.7719 17.8519C19.1381 17.3037 19.3336 16.6593 19.3336 16C19.3336 15.116 18.9824 14.2681 18.3573 13.643C17.7322 13.0179 16.8844 12.6667 16.0003 12.6667ZM16.0003 17.6667C15.6707 17.6667 15.3484 17.5689 15.0743 17.3858C14.8003 17.2027 14.5866 16.9424 14.4605 16.6378C14.3344 16.3333 14.3013 15.9982 14.3657 15.6749C14.43 15.3516 14.5887 15.0546 14.8218 14.8215C15.0549 14.5884 15.3518 14.4297 15.6751 14.3654C15.9985 14.3011 16.3336 14.3341 16.6381 14.4602C16.9426 14.5864 17.2029 14.8 17.3861 15.0741C17.5692 15.3481 17.667 15.6704 17.667 16C17.667 16.442 17.4914 16.866 17.1788 17.1785C16.8663 17.4911 16.4423 17.6667 16.0003 17.6667Z" fill="#FFB715"/>
</svg>
