<svg width="19" height="18" viewBox="0 0 19 18" fill="none" xmlns="http://www.w3.org/2000/svg">
<path d="M9.49967 8.99984C9.00522 8.99984 8.52187 9.14646 8.11075 9.42116C7.69963 9.69587 7.37919 10.0863 7.18998 10.5431C7.00076 10.9999 6.95125 11.5026 7.04771 11.9876C7.14417 12.4725 7.38228 12.918 7.73191 13.2676C8.08154 13.6172 8.527 13.8553 9.01195 13.9518C9.4969 14.0483 9.99957 13.9988 10.4564 13.8095C10.9132 13.6203 11.3036 13.2999 11.5783 12.8888C11.8531 12.4776 11.9997 11.9943 11.9997 11.4998C11.9997 10.8368 11.7363 10.2009 11.2674 9.73207C10.7986 9.26323 10.1627 8.99984 9.49967 8.99984ZM9.49967 12.3332C9.33486 12.3332 9.17374 12.2843 9.0367 12.1927C8.89966 12.1012 8.79285 11.971 8.72978 11.8187C8.6667 11.6665 8.6502 11.4989 8.68235 11.3373C8.71451 11.1756 8.79388 11.0271 8.91042 10.9106C9.02696 10.794 9.17545 10.7147 9.3371 10.6825C9.49875 10.6504 9.66631 10.6669 9.81858 10.7299C9.97085 10.793 10.101 10.8998 10.1926 11.0369C10.2841 11.1739 10.333 11.335 10.333 11.4998C10.333 11.7209 10.2452 11.9328 10.0889 12.0891C9.93265 12.2454 9.72069 12.3332 9.49967 12.3332ZM8.90801 7.0915C8.98726 7.16737 9.08072 7.22684 9.18301 7.2665C9.28276 7.31059 9.39062 7.33336 9.49967 7.33336C9.60873 7.33336 9.71659 7.31059 9.81634 7.2665C9.91863 7.22684 10.0121 7.16737 10.0913 7.0915L11.9997 5.2165C12.161 5.05516 12.2517 4.83634 12.2517 4.60817C12.2517 4.38 12.161 4.16118 11.9997 3.99984C11.8383 3.8385 11.6195 3.74786 11.3913 3.74786C11.1632 3.74786 10.9443 3.8385 10.783 3.99984L10.333 4.4915V1.49984C10.333 1.27882 10.2452 1.06686 10.0889 0.910582C9.93265 0.754301 9.72069 0.666504 9.49967 0.666504C9.27866 0.666504 9.0667 0.754301 8.91042 0.910582C8.75414 1.06686 8.66634 1.27882 8.66634 1.49984V4.4915L8.21634 3.99984C8.055 3.8385 7.83618 3.74786 7.60801 3.74786C7.37984 3.74786 7.16102 3.8385 6.99967 3.99984C6.83833 4.16118 6.74769 4.38 6.74769 4.60817C6.74769 4.83634 6.83833 5.05516 6.99967 5.2165L8.90801 7.0915ZM15.333 11.4998C15.333 11.335 15.2841 11.1739 15.1926 11.0369C15.101 10.8998 14.9708 10.793 14.8186 10.7299C14.6663 10.6669 14.4987 10.6504 14.3371 10.6825C14.1754 10.7147 14.027 10.794 13.9104 10.9106C13.7939 11.0271 13.7145 11.1756 13.6824 11.3373C13.6502 11.4989 13.6667 11.6665 13.7298 11.8187C13.7928 11.971 13.8997 12.1012 14.0367 12.1927C14.1737 12.2843 14.3349 12.3332 14.4997 12.3332C14.7207 12.3332 14.9327 12.2454 15.0889 12.0891C15.2452 11.9328 15.333 11.7209 15.333 11.4998ZM16.1663 5.6665H13.6663C13.4453 5.6665 13.2334 5.7543 13.0771 5.91058C12.9208 6.06686 12.833 6.27882 12.833 6.49984C12.833 6.72085 12.9208 6.93281 13.0771 7.08909C13.2334 7.24537 13.4453 7.33317 13.6663 7.33317H16.1663C16.3874 7.33317 16.5993 7.42097 16.7556 7.57725C16.9119 7.73353 16.9997 7.94549 16.9997 8.1665V14.8332C16.9997 15.0542 16.9119 15.2661 16.7556 15.4224C16.5993 15.5787 16.3874 15.6665 16.1663 15.6665H2.83301C2.61199 15.6665 2.40003 15.5787 2.24375 15.4224C2.08747 15.2661 1.99967 15.0542 1.99967 14.8332V8.1665C1.99967 7.94549 2.08747 7.73353 2.24375 7.57725C2.40003 7.42097 2.61199 7.33317 2.83301 7.33317H5.33301C5.55402 7.33317 5.76598 7.24537 5.92226 7.08909C6.07854 6.93281 6.16634 6.72085 6.16634 6.49984C6.16634 6.27882 6.07854 6.06686 5.92226 5.91058C5.76598 5.7543 5.55402 5.6665 5.33301 5.6665H2.83301C2.16997 5.6665 1.53408 5.9299 1.06524 6.39874C0.5964 6.86758 0.333008 7.50346 0.333008 8.1665V14.8332C0.333008 15.4962 0.5964 16.1321 1.06524 16.6009C1.53408 17.0698 2.16997 17.3332 2.83301 17.3332H16.1663C16.8294 17.3332 17.4653 17.0698 17.9341 16.6009C18.403 16.1321 18.6663 15.4962 18.6663 14.8332V8.1665C18.6663 7.50346 18.403 6.86758 17.9341 6.39874C17.4653 5.9299 16.8294 5.6665 16.1663 5.6665ZM3.66634 11.4998C3.66634 11.6647 3.71522 11.8258 3.80678 11.9628C3.89835 12.0999 4.0285 12.2067 4.18077 12.2697C4.33304 12.3328 4.5006 12.3493 4.66225 12.3172C4.8239 12.285 4.97239 12.2056 5.08893 12.0891C5.20547 11.9725 5.28484 11.8241 5.317 11.6624C5.34915 11.5008 5.33265 11.3332 5.26957 11.1809C5.2065 11.0287 5.09969 10.8985 4.96265 10.8069C4.82561 10.7154 4.66449 10.6665 4.49967 10.6665C4.27866 10.6665 4.0667 10.7543 3.91042 10.9106C3.75414 11.0669 3.66634 11.2788 3.66634 11.4998Z" fill="#F9F9F9"/>
</svg>
