<svg width="162" height="141" viewBox="0 0 162 141" fill="none" xmlns="http://www.w3.org/2000/svg">
<path d="M110.323 139.676H38.6989C35.4291 139.676 32.2646 138.518 29.7645 136.405C27.2645 134.293 25.5899 131.363 25.0367 128.133L15.1941 70.666H133.827L123.984 128.133C123.431 131.363 121.757 134.293 119.257 136.405C116.757 138.518 113.592 139.676 110.323 139.676Z" fill="#FFB715"/>
<path d="M134.084 65.1211H14.9378C12.1136 65.1211 9.82422 67.4158 9.82422 70.2464C9.82422 73.0771 12.1136 75.3718 14.9378 75.3718H134.084C136.908 75.3718 139.198 73.0771 139.198 70.2464C139.198 67.4158 136.908 65.1211 134.084 65.1211Z" fill="white"/>
<path d="M134.085 75.7771H14.9377C13.4746 75.7771 12.0714 75.1946 11.0369 74.1577C10.0023 73.1208 9.42114 71.7144 9.42114 70.2479C9.42114 68.7815 10.0023 67.3751 11.0369 66.3382C12.0714 65.3013 13.4746 64.7187 14.9377 64.7188H134.085C135.548 64.7187 136.951 65.3013 137.986 66.3382C139.021 67.3751 139.602 68.7815 139.602 70.2479C139.602 71.7144 139.021 73.1208 137.986 74.1577C136.951 75.1946 135.548 75.7771 134.085 75.7771ZM14.9389 65.5271C13.6898 65.5271 12.4918 66.0245 11.6085 66.9098C10.7252 67.7951 10.2289 68.9959 10.2289 70.2479C10.2289 71.5 10.7252 72.7007 11.6085 73.5861C12.4918 74.4714 13.6898 74.9688 14.9389 74.9688H134.085C135.334 74.9688 136.532 74.4714 137.416 73.5861C138.299 72.7007 138.795 71.5 138.795 70.2479C138.795 68.9959 138.299 67.7951 137.416 66.9098C136.532 66.0245 135.334 65.5271 134.085 65.5271H14.9389Z" fill="#757575"/>
<path d="M90.2876 67.1026C88.9556 68.7811 89.2333 71.2241 90.908 72.5592C92.5826 73.8943 95.02 73.6159 96.352 71.9374L119.155 43.2034C120.487 41.5249 120.209 39.0819 118.534 37.7468C116.86 36.4117 114.422 36.6901 113.09 38.3686L90.2876 67.1026Z" fill="white"/>
<path d="M93.3104 73.8099C92.3456 73.8105 91.4093 73.4815 90.6561 72.8771C89.7693 72.1685 89.1992 71.1363 89.0708 70.0069C88.9424 68.8775 89.2662 67.7432 89.9712 66.8528L112.774 38.1185C113.123 37.6778 113.556 37.3105 114.048 37.0375C114.539 36.7646 115.079 36.5913 115.637 36.5276C116.196 36.4638 116.761 36.5109 117.301 36.6661C117.841 36.8213 118.345 37.0816 118.785 37.4322C119.224 37.7827 119.591 38.2166 119.863 38.709C120.135 39.2015 120.308 39.7429 120.372 40.3024C120.435 40.8618 120.388 41.4284 120.234 41.9696C120.079 42.5109 119.819 43.0162 119.469 43.4569L96.6671 72.1909C96.3184 72.6327 95.8858 73.0008 95.3942 73.2738C94.9027 73.5469 94.3619 73.7196 93.8034 73.7818C93.6397 73.8005 93.4751 73.8098 93.3104 73.8099ZM91.158 72.2446C91.5148 72.5291 91.924 72.7403 92.3622 72.8662C92.8004 72.9922 93.2591 73.0304 93.712 72.9787C94.165 72.9269 94.6033 72.7863 95.002 72.5647C95.4008 72.3432 95.752 72.0451 96.0358 71.6875L118.838 42.9531C119.122 42.5956 119.333 42.1855 119.458 41.7463C119.584 41.3071 119.622 40.8473 119.571 40.3933C119.519 39.9393 119.379 39.5 119.158 39.1003C118.937 38.7006 118.64 38.3485 118.283 38.064C117.926 37.7795 117.517 37.5682 117.079 37.4422C116.641 37.3162 116.182 37.2779 115.729 37.3296C115.276 37.3812 114.838 37.5218 114.439 37.7433C114.04 37.9647 113.689 38.2627 113.405 38.6203L90.6025 67.3543C90.0304 68.0768 89.7676 68.9973 89.8717 69.9138C89.9759 70.8303 90.4385 71.6679 91.158 72.243V72.2446Z" fill="#757575"/>
<path d="M93.0597 71.3117C93.8661 71.3117 94.5198 70.6565 94.5198 69.8482C94.5198 69.04 93.8661 68.3848 93.0597 68.3848C92.2533 68.3848 91.5996 69.04 91.5996 69.8482C91.5996 70.6565 92.2533 71.3117 93.0597 71.3117Z" fill="white"/>
<path d="M93.0639 71.717C92.7882 71.7172 92.516 71.6562 92.2666 71.5383C92.0173 71.4204 91.7972 71.2487 91.622 71.0353C91.4468 70.822 91.321 70.5724 91.2535 70.3045C91.1861 70.0366 91.1787 69.7571 91.2318 69.486C91.3006 69.1392 91.4661 68.8191 91.7092 68.5629C91.9522 68.3067 92.2629 68.125 92.605 68.0388C92.947 67.9526 93.3065 67.9655 93.6416 68.076C93.9766 68.1865 94.2735 68.3901 94.4977 68.6631C94.7218 68.9361 94.864 69.2672 94.9078 69.618C94.9516 69.9688 94.8951 70.3249 94.7449 70.6448C94.5947 70.9647 94.357 71.2353 94.0594 71.4251C93.7619 71.6149 93.4166 71.7162 93.0639 71.717ZM92.0232 69.6431C91.9755 69.8836 92.0125 70.1332 92.1279 70.3493C92.2432 70.5655 92.4298 70.7349 92.6558 70.8287C92.8818 70.9224 93.1333 70.9347 93.3673 70.8635C93.6013 70.7923 93.8035 70.6419 93.9393 70.438C94.0751 70.2341 94.1362 69.9893 94.1121 69.7453C94.088 69.5013 93.9803 69.2733 93.8073 69.1C93.6342 68.9267 93.4066 68.819 93.1631 68.7951C92.9197 68.7712 92.6755 68.8326 92.4723 68.9689C92.2394 69.1252 92.0779 69.3677 92.0232 69.6431Z" fill="#757575"/>
<path d="M35.9319 38.3685C34.5998 36.69 32.1624 36.4116 30.4878 37.7467C28.8131 39.0818 28.5354 41.5248 29.8674 43.2033L52.6702 71.9372C54.0022 73.6157 56.4396 73.8941 58.1143 72.559C59.7889 71.2239 60.0667 68.7809 58.7347 67.1024L35.9319 38.3685Z" fill="white"/>
<path d="M55.7066 73.8057C55.0624 73.807 54.4263 73.6623 53.8458 73.3823C53.2653 73.1023 52.7555 72.6944 52.3545 72.189L29.5516 43.4549C28.8453 42.565 28.5207 41.4303 28.6491 40.3004C28.7775 39.1706 29.3485 38.1381 30.2363 37.4302C31.1242 36.7223 32.2563 36.3969 33.3836 36.5256C34.5109 36.6543 35.541 37.2266 36.2472 38.1165L59.0501 66.8509C59.5511 67.4817 59.8644 68.2413 59.9541 69.0425C60.0437 69.8437 59.906 70.6541 59.5569 71.3804C59.2077 72.1067 58.6612 72.7196 57.9801 73.1486C57.299 73.5776 56.511 73.8054 55.7066 73.8057ZM32.896 37.3078C32.2434 37.3083 31.6041 37.4933 31.0516 37.8415C30.499 38.1896 30.0557 38.6869 29.7724 39.2762C29.4891 39.8656 29.3773 40.523 29.4499 41.1731C29.5226 41.8232 29.7766 42.4396 30.183 42.9515L52.9855 71.6855C53.5592 72.4068 54.3949 72.8705 55.3093 72.975C56.2237 73.0794 57.142 72.816 57.8629 72.2427C58.2197 71.9583 58.5171 71.6062 58.7381 71.2066C58.9592 70.807 59.0995 70.3677 59.1511 69.9137C59.2027 69.4598 59.1646 69.0001 59.039 68.5609C58.9133 68.1217 58.7026 67.7116 58.4188 67.354L35.6162 38.62C35.2908 38.2099 34.8771 37.8789 34.4061 37.6516C33.935 37.4244 33.4188 37.3069 32.896 37.3078Z" fill="#757575"/>
<path d="M55.9616 71.3078C56.768 71.3078 57.4217 70.6526 57.4217 69.8443C57.4217 69.0361 56.768 68.3809 55.9616 68.3809C55.1552 68.3809 54.5015 69.0361 54.5015 69.8443C54.5015 70.6526 55.1552 71.3078 55.9616 71.3078Z" fill="white"/>
<path d="M55.9578 71.7125C55.6048 71.7119 55.2593 71.6108 54.9615 71.421C54.6636 71.2313 54.4256 70.9607 54.2751 70.6406C54.1247 70.3206 54.0681 69.9644 54.1117 69.6133C54.1554 69.2623 54.2977 68.9309 54.5219 68.6577C54.7462 68.3845 55.0432 68.1808 55.3784 68.0702C55.7137 67.9596 56.0734 67.9467 56.4157 68.033C56.758 68.1193 57.0688 68.3012 57.3119 68.5576C57.5551 68.814 57.7206 69.1344 57.7892 69.4814C57.8425 69.7525 57.8351 70.032 57.7677 70.2998C57.7003 70.5677 57.5745 70.8173 57.3994 71.0306C57.2243 71.244 57.0042 71.4158 56.7549 71.5337C56.5057 71.6515 56.2334 71.7126 55.9578 71.7125ZM55.9639 68.7849C55.746 68.7844 55.5332 68.8514 55.3548 68.9768C55.1763 69.1022 55.0409 69.2798 54.9671 69.4853C54.8933 69.6909 54.8846 69.9142 54.9424 70.1249C55.0001 70.3355 55.1214 70.5231 55.2896 70.6619C55.4579 70.8008 55.6648 70.8841 55.8821 70.9005C56.0995 70.9169 56.3165 70.8655 56.5036 70.7535C56.6907 70.6414 56.8386 70.4742 56.9271 70.2746C57.0157 70.075 57.0405 69.8528 56.9982 69.6386C56.9506 69.3985 56.8216 69.1823 56.6331 69.0267C56.4446 68.8711 56.2081 68.7857 55.9639 68.7849Z" fill="#757575"/>
<path d="M77.5299 93.3973C77.5299 91.726 76.1782 90.3711 74.5108 90.3711C72.8434 90.3711 71.4917 91.726 71.4917 93.3973V122.007C71.4917 123.678 72.8434 125.033 74.5108 125.033C76.1782 125.033 77.5299 123.678 77.5299 122.007V93.3973Z" fill="white"/>
<path d="M48.6681 93.1034C48.4119 91.4519 46.8686 90.3213 45.221 90.578C43.5734 90.8348 42.4455 92.3817 42.7017 94.0332L47.0872 122.303C47.3434 123.955 48.8868 125.085 50.5344 124.829C52.1819 124.572 53.3099 123.025 53.0537 121.374L48.6681 93.1034Z" fill="white"/>
<path d="M96.5907 121.373C96.3345 123.024 97.4624 124.571 99.11 124.828C100.758 125.085 102.301 123.954 102.557 122.303L106.943 94.0325C107.199 92.3811 106.071 90.8341 104.423 90.5774C102.776 90.3206 101.232 91.4512 100.976 93.1027L96.5907 121.373Z" fill="white"/>
<path d="M59.6127 52.1072C59.5262 52.1072 59.442 52.0802 59.3717 52.0299C59.2813 51.9659 59.2201 51.8686 59.2014 51.7594C59.1828 51.6502 59.2083 51.5381 59.2723 51.4477C59.3496 51.3387 66.897 40.4275 58.4713 30.4801C56.9801 28.7104 55.1198 27.2881 53.0209 26.3131C50.9221 25.3381 48.6354 24.8339 46.3211 24.8358H46.2075C47.0076 27.6154 46.8648 30.0868 45.7318 31.9827C45.2491 32.8394 44.5367 33.5443 43.6749 34.018C42.8131 34.4917 41.8362 34.7153 40.8542 34.6637C40.0413 34.5971 39.2654 34.2949 38.6217 33.7941C37.9779 33.2933 37.4942 32.6156 37.2298 31.844C36.3031 29.4269 37.2715 27.0833 39.8239 25.5728C41.4409 24.6812 43.2376 24.1644 45.0812 24.0607C44.4815 22.4706 43.7016 20.9544 42.7568 19.5418C39.7145 14.8955 34.17 11.6791 27.5442 10.7173C21.9291 9.90256 16.5478 10.8622 13.8329 13.1616C13.7484 13.2331 13.6389 13.2681 13.5285 13.2589C13.4181 13.2497 13.3159 13.1971 13.2443 13.1125C13.1728 13.0279 13.1378 12.9184 13.147 12.808C13.1562 12.6976 13.2088 12.5954 13.2934 12.5239C16.1824 10.0771 21.823 9.04271 27.6641 9.89296C34.5266 10.8894 40.2821 14.2398 43.4559 19.0862C44.4848 20.6231 45.3218 22.2803 45.9482 24.0206C48.4447 23.9606 50.9229 24.4615 53.2002 25.4864C55.4774 26.5112 57.4958 28.0339 59.1065 29.9423C67.9569 40.3904 60.0324 51.8186 59.9513 51.933C59.9127 51.9868 59.8619 52.0307 59.803 52.0609C59.7441 52.0912 59.6789 52.1071 59.6127 52.1072ZM45.3522 24.8662C43.5648 24.9425 41.8191 25.4304 40.2512 26.292C38.0479 27.5957 37.2319 29.5109 38.0115 31.5455C38.2228 32.1689 38.6112 32.7172 39.1292 33.1233C39.6472 33.5295 40.2723 33.7758 40.9281 33.8323C41.7538 33.8693 42.5736 33.6758 43.2957 33.2736C44.0177 32.8714 44.6137 32.2762 45.0169 31.5546C46.0567 29.8132 46.1519 27.4984 45.351 24.8662H45.3522Z" fill="#292A2E"/>
<path d="M6.62547 19.8929C5.91581 20.1061 5.15096 20.0339 4.49377 19.6915C3.83659 19.3492 3.33898 18.7639 3.10692 18.0602C2.87485 17.3565 2.92665 16.59 3.2513 15.9239C3.57594 15.2578 4.14777 14.7447 4.84504 14.494C5.54231 14.2432 6.30993 14.2745 6.98445 14.5813C7.65897 14.888 8.18711 15.4459 8.45641 16.1363C8.7257 16.8266 8.71489 17.5948 8.42626 18.2772C8.13764 18.9597 7.59401 19.5025 6.91112 19.7902C6.81785 19.8296 6.72249 19.8639 6.62547 19.8929ZM5.23693 15.2525C5.16928 15.2728 5.10279 15.2968 5.03773 15.3243C4.55723 15.5269 4.17482 15.9091 3.97194 16.3894C3.76905 16.8698 3.76174 17.4104 3.95154 17.8961C4.14135 18.3818 4.51328 18.7742 4.98812 18.9897C5.46296 19.2053 6.00318 19.2269 6.49372 19.05C6.98427 18.8731 7.38637 18.5117 7.61439 18.0427C7.84241 17.5738 7.87833 17.0343 7.71449 16.5393C7.55065 16.0442 7.2 15.6327 6.73724 15.3923C6.27447 15.152 5.73615 15.1018 5.23693 15.2525Z" fill="#292A2E"/>
<path d="M6.62049 13.3499C5.94918 13.5503 5.22747 13.4956 4.59411 13.1961C3.96076 12.8966 3.46047 12.3735 3.18943 11.7275C2.97211 11.2096 2.91327 10.6388 3.02034 10.0875C3.1274 9.53609 3.39558 9.02886 3.79094 8.6299C4.1863 8.23095 4.69109 7.9582 5.24147 7.84615C5.79185 7.73409 6.3631 7.78778 6.88297 8.0004C7.40284 8.21302 7.84799 8.57503 8.16211 9.04065C8.47622 9.50628 8.64521 10.0546 8.64769 10.6163C8.65017 11.1779 8.48603 11.7277 8.17603 12.1961C7.86603 12.6645 7.4241 13.0304 6.90613 13.2476C6.81276 13.2866 6.71742 13.3208 6.62049 13.3499ZM5.23361 8.70904C5.16516 8.72958 5.09783 8.7537 5.03191 8.78129C4.542 8.98707 4.15384 9.37895 3.95275 9.8708C3.75166 10.3626 3.75408 10.9142 3.95949 11.4043C4.1093 11.7615 4.35941 12.0677 4.67957 12.2858C4.99973 12.5038 5.37621 12.6245 5.76349 12.6331C6.15077 12.6417 6.53225 12.5379 6.86178 12.3343C7.19131 12.1306 7.45478 11.8359 7.62031 11.4857C7.78585 11.1354 7.84636 10.7447 7.79453 10.3609C7.74269 9.97696 7.58074 9.61632 7.32825 9.32253C7.07576 9.02875 6.74355 8.81442 6.37182 8.70547C6.00008 8.59652 5.60474 8.59762 5.23361 8.70863V8.70904Z" fill="#292A2E"/>
<path d="M5.81004 16.3021C7.86087 16.3021 9.5234 15.1917 9.5234 13.822C9.5234 12.4522 7.86087 11.3418 5.81004 11.3418C3.75921 11.3418 2.09668 12.4522 2.09668 13.822C2.09668 15.1917 3.75921 16.3021 5.81004 16.3021Z" fill="white"/>
<path d="M7.45369 16.4872C6.9213 16.6445 6.36891 16.7239 5.81375 16.7227C3.49687 16.7227 1.67944 15.4532 1.67944 13.8283C1.67944 12.2034 3.49144 10.9292 5.80749 10.9267C6.81724 10.9074 7.8107 11.1831 8.666 11.7202C9.05014 11.9203 9.3721 12.2219 9.59691 12.5921C9.82172 12.9623 9.94079 13.3871 9.94118 13.8202C9.94157 14.2534 9.82326 14.6784 9.59911 15.049C9.37496 15.4196 9.05354 15.7218 8.66976 15.9226C8.29458 16.1699 7.88476 16.3602 7.45369 16.4872ZM4.42103 11.9607C3.30519 12.2948 2.51424 13.016 2.51466 13.8262C2.51466 14.9441 4.02514 15.8875 5.81375 15.8858C6.65865 15.9036 7.49043 15.6749 8.20747 15.2277C8.4764 15.1038 8.70415 14.9054 8.86371 14.656C9.02327 14.4066 9.10794 14.1167 9.10767 13.8206C9.10741 13.5245 9.02223 13.2347 8.86222 12.9856C8.70222 12.7365 8.47411 12.5385 8.20497 12.4151C7.4874 11.9688 6.65522 11.7415 5.81041 11.7611C5.34005 11.7599 4.87202 11.8271 4.42103 11.9607Z" fill="#292A2E"/>
<path d="M6.72061 16.2273L6.63292 11.4039L5.43355 11.3555L5.34961 16.2836L6.72061 16.2273Z" fill="#292A2E"/>
<path d="M0.883363 14.8722C1.09509 14.8722 1.26673 14.7006 1.26673 14.4888C1.26673 14.2771 1.09509 14.1055 0.883363 14.1055C0.671637 14.1055 0.5 14.2771 0.5 14.4888C0.5 14.7006 0.671637 14.8722 0.883363 14.8722Z" fill="#292A2E"/>
<path d="M1.18292 12.8214C1.39465 12.8214 1.56629 12.6498 1.56629 12.4381C1.56629 12.2263 1.39465 12.0547 1.18292 12.0547C0.971198 12.0547 0.799561 12.2263 0.799561 12.4381C0.799561 12.6498 0.971198 12.8214 1.18292 12.8214Z" fill="#292A2E"/>
<path d="M90.2033 55.4436C90.1139 55.4435 90.0269 55.4149 89.955 55.3617C89.8832 55.3086 89.8303 55.2338 89.8041 55.1483C88.4189 49.9757 88.0493 44.5837 88.7158 39.2705C89.7953 31.503 94.0791 21.3088 108.356 16.845C110.365 16.1991 112.425 15.7268 114.515 15.4331C115.187 11.2315 117.747 6.67376 123.47 3.52918C137.068 -3.94263 146.253 2.76121 146.344 2.82969C146.433 2.89615 146.491 2.99508 146.507 3.10472C146.523 3.21436 146.494 3.32574 146.428 3.41434C146.361 3.50295 146.262 3.56153 146.153 3.57719C146.043 3.59285 145.932 3.56432 145.843 3.49786C145.756 3.43272 136.978 -2.94038 123.872 4.26167C118.525 7.20037 116.077 11.4182 115.38 15.3337C121.677 14.7135 124.693 16.8141 126.046 18.4006C126.884 19.3546 127.422 20.534 127.594 21.7917C127.766 23.0494 127.564 24.3299 127.013 25.4736C126.578 26.398 125.872 27.1687 124.99 27.6838C124.107 28.1989 123.089 28.4343 122.07 28.3588C118.554 28.1525 115.643 25.1942 114.657 20.8219C114.332 19.3418 114.245 17.8191 114.401 16.3117C112.435 16.5941 110.497 17.0398 108.606 17.6443C97.4784 21.1234 91.0661 28.4394 89.5426 39.3878C88.89 44.5805 89.2499 49.8504 90.6025 54.9061C90.6217 54.9685 90.6259 55.0346 90.6149 55.099C90.6038 55.1633 90.5779 55.2242 90.5391 55.2767C90.5002 55.3292 90.4496 55.3719 90.3913 55.4013C90.333 55.4307 90.2686 55.446 90.2033 55.4461V55.4436ZM115.252 16.2073C115.078 17.686 115.152 19.1834 115.472 20.6377C116.374 24.6375 118.983 27.3407 122.119 27.5249C122.974 27.5861 123.827 27.3876 124.567 26.9553C125.307 26.5231 125.899 25.8773 126.265 25.1027C126.743 24.1054 126.916 22.9897 126.764 21.8945C126.612 20.7992 126.141 19.773 125.41 18.9435C123.457 16.6521 119.894 15.7266 115.252 16.2073Z" fill="#292A2E"/>
<path d="M156.072 7.04907C155.51 7.04789 154.959 6.88769 154.484 6.58695C154.008 6.28621 153.628 5.85719 153.386 5.34941C153.144 4.84164 153.05 4.2758 153.116 3.7172C153.182 3.1586 153.405 2.63002 153.758 2.19246C154.111 1.75489 154.581 1.42619 155.114 1.24428C155.646 1.06236 156.219 1.03466 156.766 1.16437C157.313 1.29407 157.813 1.5759 158.207 1.97732C158.601 2.37873 158.873 2.88338 158.993 3.43302C159.086 3.86871 159.081 4.31983 158.978 4.75333C158.875 5.18684 158.676 5.59175 158.396 5.93843C158.116 6.28511 157.762 6.56477 157.36 6.75694C156.958 6.94911 156.518 7.04892 156.072 7.04907ZM156.078 1.91919C155.634 1.91918 155.201 2.05694 154.838 2.31347C154.476 2.57001 154.202 2.93269 154.054 3.35154C153.906 3.77039 153.892 4.22479 154.013 4.65209C154.134 5.0794 154.385 5.45859 154.731 5.73739C155.076 6.0162 155.5 6.1809 155.943 6.20879C156.387 6.23668 156.828 6.12639 157.206 5.89312C157.584 5.65985 157.88 5.31508 158.054 4.90634C158.228 4.49759 158.27 4.04499 158.176 3.61092C158.075 3.13066 157.81 2.70018 157.428 2.39202C157.046 2.08387 156.569 1.91688 156.078 1.91919Z" fill="#292A2E"/>
<path d="M154.815 13.8646C154.049 13.8646 153.313 13.5711 152.757 13.0446C152.202 12.518 151.869 11.7986 151.828 11.0343C151.787 10.27 152.041 9.51903 152.537 8.93599C153.032 8.35295 153.733 7.98221 154.494 7.90009C155.255 7.81796 156.018 8.03072 156.627 8.49454C157.236 8.95836 157.644 9.63796 157.767 10.3934C157.89 11.1489 157.718 11.9227 157.288 12.5556C156.858 13.1886 156.201 13.6324 155.453 13.7957C155.243 13.8415 155.029 13.8646 154.815 13.8646ZM154.825 8.73432C154.671 8.73439 154.517 8.75105 154.366 8.78402C153.832 8.90117 153.364 9.21833 153.057 9.67023C152.751 10.1221 152.629 10.6744 152.717 11.2134C152.805 11.7524 153.096 12.2372 153.531 12.5679C153.965 12.8987 154.51 13.0503 155.053 12.9915C155.596 12.9328 156.096 12.6682 156.45 12.2521C156.804 11.8361 156.985 11.3002 156.955 10.7549C156.926 10.2095 156.689 9.69606 156.293 9.32021C155.896 8.94436 155.371 8.73469 154.825 8.73432Z" fill="#292A2E"/>
<path d="M159.299 8.27015C159.563 6.84375 158.045 5.36794 155.909 4.97386C153.774 4.57978 151.829 5.41666 151.566 6.84306C151.302 8.26945 152.82 9.74525 154.956 10.1393C157.092 10.5334 159.036 9.69655 159.299 8.27015Z" fill="white"/>
<path d="M156.008 10.6527C155.629 10.6521 155.252 10.6172 154.88 10.5483C153.83 10.3741 152.853 9.89719 152.07 9.17609C151.727 8.8836 151.464 8.50941 151.304 8.0881C151.144 7.66679 151.093 7.21196 151.155 6.76566C151.256 6.32651 151.466 5.91992 151.766 5.58344C152.066 5.24697 152.445 4.99145 152.87 4.84049C153.863 4.46531 154.94 4.36885 155.985 4.56154C157.029 4.75424 158.001 5.22876 158.795 5.93379C159.138 6.22627 159.401 6.60047 159.561 7.02178C159.721 7.44308 159.772 7.89791 159.71 8.34422C159.609 8.78336 159.398 9.18995 159.099 9.52643C158.799 9.86291 158.419 10.1184 157.995 10.2694C157.365 10.53 156.689 10.6604 156.008 10.6527ZM154.854 5.29151C154.287 5.2843 153.724 5.39183 153.2 5.60764C152.903 5.70697 152.636 5.87874 152.422 6.10741C152.209 6.33608 152.055 6.61443 151.976 6.91725C151.942 7.22831 151.986 7.54301 152.104 7.83286C152.222 8.1227 152.41 8.37855 152.652 8.57724C153.328 9.16681 154.149 9.56379 155.031 9.72653C155.913 9.88928 156.822 9.81181 157.663 9.50224C157.96 9.40291 158.227 9.23113 158.441 9.00246C158.655 8.77379 158.808 8.49545 158.887 8.19262C158.921 7.88155 158.878 7.56678 158.76 7.27689C158.642 6.987 158.453 6.73118 158.211 6.53264C157.546 5.92618 156.719 5.52666 155.831 5.38297C155.509 5.32307 155.183 5.29246 154.856 5.29151H154.854Z" fill="#292A2E"/>
<path d="M154.95 4.87695L154.11 9.9158L155.349 10.1981L156.388 5.08283L154.95 4.87695Z" fill="#292A2E"/>
<path d="M159.985 10.2982C160.209 10.2982 160.39 10.1164 160.39 9.89224C160.39 9.66806 160.209 9.48633 159.985 9.48633C159.76 9.48633 159.579 9.66806 159.579 9.89224C159.579 10.1164 159.76 10.2982 159.985 10.2982Z" fill="#292A2E"/>
<path d="M160.692 8.22003C160.916 8.22003 161.098 8.0383 161.098 7.81412C161.098 7.58994 160.916 7.4082 160.692 7.4082C160.468 7.4082 160.286 7.58994 160.286 7.81412C160.286 8.0383 160.468 8.22003 160.692 8.22003Z" fill="#292A2E"/>
</svg>
