<svg width="18" height="18" viewBox="0 0 18 18" fill="none" xmlns="http://www.w3.org/2000/svg">
<path d="M13.9999 10.6666C13.5075 10.6699 13.022 10.7821 12.5782 10.9954C12.1344 11.2086 11.7434 11.5176 11.4332 11.8999L7.18321 9.9416C7.38304 9.32972 7.38304 8.67014 7.18321 8.05827L11.4332 6.09993C11.9346 6.7049 12.6335 7.11333 13.4067 7.25313C14.1798 7.39293 14.9776 7.25512 15.659 6.86402C16.3405 6.47292 16.8619 5.85366 17.1312 5.11555C17.4005 4.37744 17.4004 3.56792 17.131 2.82985C16.8615 2.09179 16.34 1.47264 15.6585 1.08166C14.977 0.690677 14.1792 0.55301 13.4061 0.692952C12.6329 0.832894 11.9341 1.24145 11.4328 1.84651C10.9316 2.45157 10.6602 3.21425 10.6665 3.99993C10.6691 4.19846 10.6886 4.39641 10.7249 4.5916L6.32488 6.6166C5.85578 6.15791 5.26175 5.84786 4.61722 5.72529C3.97269 5.60272 3.30631 5.67307 2.70159 5.92754C2.09687 6.18201 1.58068 6.60928 1.21771 7.15582C0.854746 7.70235 0.661133 8.34385 0.661133 8.99993C0.661133 9.65602 0.854746 10.2975 1.21771 10.844C1.58068 11.3906 2.09687 11.8179 2.70159 12.0723C3.30631 12.3268 3.97269 12.3971 4.61722 12.2746C5.26175 12.152 5.85578 11.842 6.32488 11.3833L10.7249 13.4083C10.6886 13.6035 10.6691 13.8014 10.6665 13.9999C10.6665 14.6592 10.862 15.3037 11.2283 15.8518C11.5946 16.4 12.1152 16.8272 12.7243 17.0795C13.3334 17.3318 14.0036 17.3978 14.6502 17.2692C15.2968 17.1406 15.8907 16.8231 16.3569 16.357C16.8231 15.8908 17.1405 15.2968 17.2692 14.6502C17.3978 14.0036 17.3318 13.3334 17.0795 12.7243C16.8272 12.1152 16.3999 11.5946 15.8518 11.2284C15.3036 10.8621 14.6592 10.6666 13.9999 10.6666ZM13.9999 2.33327C14.3295 2.33327 14.6518 2.43101 14.9258 2.61415C15.1999 2.79729 15.4135 3.05758 15.5397 3.36213C15.6658 3.66667 15.6988 4.00178 15.6345 4.32508C15.5702 4.64838 15.4115 4.94536 15.1784 5.17844C14.9453 5.41153 14.6483 5.57027 14.325 5.63457C14.0017 5.69888 13.6666 5.66588 13.3621 5.53973C13.0575 5.41359 12.7972 5.19996 12.6141 4.92588C12.431 4.6518 12.3332 4.32957 12.3332 3.99993C12.3332 3.5579 12.5088 3.13398 12.8214 2.82142C13.1339 2.50886 13.5579 2.33327 13.9999 2.33327ZM3.99988 10.6666C3.67025 10.6666 3.34801 10.5689 3.07393 10.3857C2.79985 10.2026 2.58623 9.94228 2.46008 9.63774C2.33394 9.33319 2.30093 8.99808 2.36524 8.67478C2.42955 8.35148 2.58828 8.05451 2.82137 7.82142C3.05446 7.58833 3.35143 7.4296 3.67473 7.36529C3.99803 7.30098 4.33314 7.33399 4.63769 7.46013C4.94223 7.58628 5.20253 7.7999 5.38566 8.07398C5.5688 8.34806 5.66655 8.6703 5.66655 8.99993C5.66655 9.44196 5.49095 9.86588 5.17839 10.1784C4.86583 10.491 4.44191 10.6666 3.99988 10.6666ZM13.9999 15.6666C13.6702 15.6666 13.348 15.5689 13.0739 15.3857C12.7998 15.2026 12.5862 14.9423 12.4601 14.6377C12.3339 14.3332 12.3009 13.9981 12.3652 13.6748C12.4295 13.3515 12.5883 13.0545 12.8214 12.8214C13.0545 12.5883 13.3514 12.4296 13.6747 12.3653C13.998 12.301 14.3331 12.334 14.6377 12.4601C14.9422 12.5863 15.2025 12.7999 15.3857 13.074C15.5688 13.3481 15.6665 13.6703 15.6665 13.9999C15.6665 14.442 15.491 14.8659 15.1784 15.1784C14.8658 15.491 14.4419 15.6666 13.9999 15.6666Z" fill="black"/>
</svg>
