<svg width="100" height="99" viewBox="0 0 100 99" fill="none" xmlns="http://www.w3.org/2000/svg">
<g clip-path="url(#clip0_515_7031)">
<circle cx="50.5" cy="49.5" r="49.5" fill="#FFEFD6"/>
<mask id="mask0_515_7031" style="mask-type:alpha" maskUnits="userSpaceOnUse" x="1" y="0" width="99" height="99">
<circle cx="50.5" cy="49.5" r="49.5" fill="#C4C4C4"/>
</mask>
<g mask="url(#mask0_515_7031)">
<ellipse cx="50.4999" cy="87.1198" rx="37.62" ry="21.78" fill="#FFB715"/>
</g>
<circle cx="50.5007" cy="42.0749" r="17.82" fill="#FFB715"/>
<rect x="1" y="1" width="99" height="98" fill="#121212" fill-opacity="0.5"/>
<path d="M43 55.9999H47.24C47.3716 56.0007 47.5021 55.9755 47.6239 55.9257C47.7458 55.8759 47.8566 55.8026 47.95 55.7099L54.87 48.7799L57.71 45.9999C57.8037 45.907 57.8781 45.7964 57.9289 45.6745C57.9797 45.5527 58.0058 45.422 58.0058 45.2899C58.0058 45.1579 57.9797 45.0272 57.9289 44.9054C57.8781 44.7835 57.8037 44.6729 57.71 44.5799L53.47 40.2899C53.3771 40.1962 53.2665 40.1218 53.1446 40.071C53.0227 40.0203 52.892 39.9941 52.76 39.9941C52.628 39.9941 52.4973 40.0203 52.3754 40.071C52.2536 40.1218 52.143 40.1962 52.05 40.2899L49.23 43.1199L42.29 50.0499C42.1973 50.1434 42.124 50.2542 42.0742 50.376C42.0245 50.4979 41.9993 50.6283 42 50.7599V54.9999C42 55.2652 42.1054 55.5195 42.2929 55.707C42.4804 55.8946 42.7348 55.9999 43 55.9999ZM52.76 42.4099L55.59 45.2399L54.17 46.6599L51.34 43.8299L52.76 42.4099ZM44 51.1699L49.93 45.2399L52.76 48.0699L46.83 53.9999H44V51.1699Z" fill="#F9F9F9"/>
</g>
<rect x="0.962617" y="0.462617" width="98.0748" height="98.0748" rx="49.0374" stroke="#FFB715" stroke-width="0.925234"/>
<defs>
<clipPath id="clip0_515_7031">
<rect x="0.5" width="99" height="99" rx="49.5" fill="white"/>
</clipPath>
</defs>
</svg>
